<?xml version="1.0" encoding="UTF-8"?>
<svg xmlns="http://www.w3.org/2000/svg" xmlns:xlink="http://www.w3.org/1999/xlink" width="166px" height="52px" viewBox="0 0 165 52" version="1.1">
<g id="surface1">
<path style=" stroke:none;fill-rule:nonzero;fill:rgb(0%,0%,0%);fill-opacity:1;" d="M 31.660156 0.140625 C 25.652344 0.96875 17.945312 5.855469 11.5 12.921875 C 5.234375 19.769531 1.417969 27.113281 0.308594 34.375 C 0 36.402344 0 39.75 0.308594 41.144531 C 1.519531 46.664062 5.195312 49.867188 11.035156 50.539062 C 13.921875 50.863281 16.925781 50.421875 24.75 48.523438 C 32.574219 46.613281 35.292969 46.144531 39.316406 46.042969 C 42.113281 45.976562 43.542969 46.121094 45.542969 46.714844 C 48.25 47.503906 50.3125 49.027344 51.886719 51.40625 C 51.898438 51.417969 52.335938 51.019531 52.863281 50.488281 C 53.84375 49.519531 54.941406 48.859375 56.332031 48.382812 C 57.300781 48.046875 61.113281 48.03125 62.84375 48.355469 C 65.382812 48.835938 68.113281 49.84375 70.097656 51.042969 C 70.679688 51.394531 71.15625 51.625 71.15625 51.574219 C 71.15625 51.355469 68.679688 49.105469 67.277344 48.046875 C 61.488281 43.691406 57.851562 42.320312 51.78125 42.164062 C 46.472656 42.023438 42.898438 42.59375 31.789062 45.292969 C 22.46875 47.554688 20.535156 47.878906 16.886719 47.773438 C 14.925781 47.722656 14.476562 47.671875 13.496094 47.375 C 10.339844 46.429688 8.535156 44.6875 7.617188 41.6875 C 5.351562 34.320312 11.78125 20.367188 22.300781 9.820312 C 26.066406 6.035156 29.183594 3.8125 32.046875 2.855469 C 34.519531 2.027344 36.054688 2.507812 36.015625 4.097656 C 36.003906 4.78125 35.757812 5.039062 35.125 5.039062 C 34.160156 5.039062 32.742188 6.136719 32.226562 7.300781 C 31.789062 8.269531 31.839844 9.40625 32.328125 9.976562 C 33.296875 11.046875 35.203125 10.027344 36.597656 7.714844 C 37.472656 6.242188 37.703125 5.480469 37.703125 4.136719 C 37.703125 3.023438 37.667969 2.84375 37.332031 2.222656 C 36.351562 0.453125 34.445312 -0.246094 31.660156 0.140625 Z M 31.660156 0.140625 "/>
<path style=" stroke:none;fill-rule:nonzero;fill:rgb(0%,0%,0%);fill-opacity:1;" d="M 110.574219 0.402344 C 107.597656 0.8125 102.878906 3.023438 98.679688 5.996094 C 91.085938 11.359375 83.414062 20.417969 79.007812 29.230469 C 76.027344 35.1875 74.960938 40.652344 75.992188 44.648438 C 76.984375 48.496094 80.128906 50.886719 83.828125 50.589844 C 87.605469 50.308594 91.109375 48.472656 94.617188 44.96875 C 99.246094 40.34375 102.480469 33.984375 102.480469 29.488281 C 102.480469 26.699219 101.242188 25.160156 99.011719 25.171875 C 95.828125 25.210938 91.574219 28.273438 89.488281 32.046875 C 88.417969 33.960938 87.203125 37.253906 86.832031 39.269531 C 86.507812 40.988281 86.496094 40.976562 87.628906 39.917969 C 89.011719 38.613281 91.097656 37.085938 92.347656 36.453125 L 93.40625 35.925781 L 93.703125 34.902344 C 94.847656 30.921875 96.976562 28.132812 99.167969 27.730469 C 99.863281 27.601562 100.46875 27.925781 100.726562 28.570312 C 101.292969 29.96875 100.648438 32.886719 99.078125 36.066406 C 96.746094 40.769531 91.910156 45.65625 88.636719 46.585938 C 87.527344 46.910156 86.109375 46.804688 85.15625 46.339844 C 83.300781 45.421875 82.398438 43.121094 82.746094 40.1875 C 83.042969 37.71875 84.203125 33.84375 85.542969 30.832031 C 87.734375 25.898438 92.089844 19.332031 96.433594 14.410156 C 98.277344 12.300781 101.679688 9.03125 103.652344 7.441406 C 107.777344 4.136719 111 2.429688 113.179688 2.402344 C 114.675781 2.378906 114.664062 2.46875 113.023438 3.632812 C 108.976562 6.539062 106.617188 8.941406 104.722656 12.09375 C 102.90625 15.144531 102.261719 17.808594 102.996094 19.332031 C 103.796875 20.984375 106.15625 21.117188 108.589844 19.640625 C 111.078125 18.144531 113.824219 14.785156 115.628906 11.046875 C 116.855469 8.503906 117.332031 6.679688 117.292969 4.664062 C 117.265625 3.242188 117.226562 3.28125 118.789062 3.140625 C 121.328125 2.933594 124.265625 4.136719 129.359375 7.496094 C 130.996094 8.566406 132.980469 9.835938 133.765625 10.300781 L 135.222656 11.140625 L 137.117188 9.175781 C 138.175781 8.089844 139.039062 7.171875 139.050781 7.121094 C 139.078125 7.082031 138.753906 6.863281 138.355469 6.65625 C 137.941406 6.433594 136.355469 5.53125 134.835938 4.640625 C 129.949219 1.785156 128.570312 1.136719 126.300781 0.632812 C 123.867188 0.0898438 120.449219 0.324219 117.601562 1.226562 L 116.261719 1.652344 L 115.617188 1.214844 C 115.253906 0.980469 114.664062 0.683594 114.300781 0.582031 C 113.449219 0.324219 111.683594 0.246094 110.574219 0.402344 Z M 115.601562 5.386719 C 115.398438 9.367188 112.472656 14.539062 108.695312 17.585938 C 107.496094 18.558594 106.632812 18.996094 105.753906 19.085938 C 105.125 19.152344 105.046875 19.125 104.683594 18.761719 C 103.707031 17.78125 104.414062 15.324219 106.617188 12.082031 C 108.242188 9.679688 110.601562 7.25 112.894531 5.59375 C 113.992188 4.808594 115.320312 4.019531 115.550781 4.007812 C 115.617188 4.007812 115.640625 4.613281 115.601562 5.386719 Z M 115.601562 5.386719 "/>
<path style=" stroke:none;fill-rule:nonzero;fill:rgb(0%,0%,0%);fill-opacity:1;" d="M 163.554688 1.484375 C 160.617188 4.304688 156.542969 6.796875 152.910156 8.011719 C 150.691406 8.761719 149.027344 9.058594 147.015625 9.097656 L 145.34375 9.136719 L 143.511719 11.191406 C 142.492188 12.316406 141.667969 13.285156 141.667969 13.324219 C 141.667969 13.503906 142.3125 13.582031 144.117188 13.644531 C 146.992188 13.761719 149.3125 13.308594 152.171875 12.09375 C 156.710938 10.171875 161.453125 6.007812 164.109375 1.601562 C 164.472656 0.996094 164.742188 0.476562 164.730469 0.453125 C 164.703125 0.425781 164.175781 0.90625 163.554688 1.484375 Z M 163.554688 1.484375 "/>
<path style=" stroke:none;fill-rule:nonzero;fill:rgb(0%,0%,0%);fill-opacity:1;" d="M 149.660156 1.035156 C 146.875 2.027344 143.652344 4.457031 139.28125 8.851562 C 134.796875 13.335938 131.175781 17.652344 128.417969 21.789062 C 126.367188 24.875 123.429688 29.980469 121.585938 33.675781 L 120.8125 35.238281 L 119.855469 35.511719 C 118.863281 35.808594 117.949219 35.886719 117.949219 35.664062 C 117.949219 35.589844 118.117188 35.199219 118.324219 34.789062 C 119.636719 32.164062 120.335938 28.699219 119.855469 27.097656 C 119.625 26.308594 118.800781 25.523438 117.960938 25.277344 C 116.660156 24.886719 115.539062 25.09375 113.605469 26.039062 C 110.511719 27.5625 106.398438 31.53125 103.484375 35.796875 C 100.445312 40.265625 98.882812 45.074219 99.527344 48.058594 C 99.941406 49.984375 101.617188 51.019531 103.652344 50.589844 C 105.714844 50.164062 108.011719 48.601562 111.066406 45.550781 C 113.359375 43.265625 114.289062 42.035156 116.324219 38.597656 C 117.058594 37.382812 117.097656 37.347656 117.550781 37.347656 C 117.808594 37.332031 118.4375 37.253906 118.953125 37.164062 C 119.457031 37.074219 119.882812 37.046875 119.882812 37.085938 C 119.882812 37.140625 119.484375 38.394531 118.980469 39.878906 C 117.910156 43.121094 117.5625 44.738281 117.5625 46.480469 C 117.5625 48.238281 117.792969 49.003906 118.582031 49.765625 C 119.007812 50.179688 119.378906 50.398438 119.792969 50.5 C 121.789062 51.003906 123.402344 50.230469 126.394531 47.285156 L 128.070312 45.628906 L 128.03125 46.742188 C 127.953125 48.71875 128.417969 49.75 129.640625 50.347656 C 130.246094 50.644531 130.441406 50.683594 131.265625 50.628906 C 131.804688 50.589844 132.464844 50.4375 132.835938 50.28125 C 133.855469 49.828125 135.507812 48.664062 136.628906 47.605469 L 137.660156 46.625 L 137.632812 47.582031 C 137.59375 48.871094 137.734375 49.429688 138.265625 50.011719 C 140.261719 52.234375 145.046875 49.324219 150.367188 42.671875 C 151.324219 41.480469 153.113281 39.039062 153.71875 38.09375 L 153.941406 37.734375 L 152.171875 37.734375 L 151.050781 39.324219 C 148.292969 43.210938 145.507812 45.875 144.207031 45.875 C 143.757812 45.875 143.652344 45.472656 143.910156 44.738281 C 144.027344 44.441406 146.398438 40.304688 149.183594 35.5625 C 151.980469 30.820312 154.417969 26.671875 154.609375 26.324219 L 154.972656 25.714844 L 149.816406 25.714844 L 149.414062 26.375 L 149.003906 27.019531 L 148.421875 26.375 C 147.570312 25.417969 146.914062 25.148438 145.675781 25.238281 C 143.769531 25.367188 141.679688 26.476562 139.28125 28.648438 C 136.691406 31 134.074219 34.308594 130.09375 40.28125 C 126.921875 45.023438 124.9375 46.832031 123.90625 45.875 C 123.519531 45.511719 123.441406 45.125 123.53125 43.882812 C 123.632812 42.296875 124.433594 39.8125 125.953125 36.3125 L 126.652344 34.734375 L 127.617188 34.078125 C 130.941406 31.828125 133.765625 29.476562 137.464844 25.84375 C 140.558594 22.796875 142.570312 20.664062 144.425781 18.441406 C 145.949219 16.617188 147.496094 14.578125 147.417969 14.511719 C 147.390625 14.472656 146.992188 14.484375 146.539062 14.539062 L 145.714844 14.628906 L 144.660156 15.945312 C 140.675781 20.972656 133.316406 28.25 129.652344 30.769531 C 129.046875 31.183594 128.507812 31.53125 128.46875 31.53125 C 128.273438 31.53125 130.980469 26.621094 132.800781 23.675781 C 137.453125 16.128906 141.679688 10.777344 146.863281 5.867188 C 149.351562 3.503906 151.105469 2.378906 151.75 2.726562 C 151.96875 2.84375 152.007812 2.945312 151.941406 3.410156 C 151.824219 4.238281 151.476562 5.183594 150.808594 6.550781 C 150.472656 7.25 150.203125 7.816406 150.214844 7.832031 C 150.226562 7.84375 150.652344 7.742188 151.167969 7.597656 L 152.082031 7.339844 L 152.46875 6.488281 C 153.050781 5.167969 153.410156 3.914062 153.476562 2.90625 C 153.539062 2.144531 153.5 1.9375 153.269531 1.578125 C 153.128906 1.34375 152.804688 1.058594 152.5625 0.957031 C 151.929688 0.699219 150.511719 0.738281 149.660156 1.035156 Z M 117.640625 27.640625 C 118.902344 28.417969 118.660156 31.144531 117.074219 34.179688 C 116.558594 35.160156 116.402344 35.34375 116.105469 35.382812 C 115.601562 35.445312 114.546875 34.8125 113.8125 34.011719 C 112.328125 32.398438 112.484375 30.523438 114.210938 28.804688 C 115.488281 27.539062 116.761719 27.113281 117.640625 27.640625 Z M 147.765625 28.183594 L 148.011719 28.53125 L 147.003906 30.25 C 141.179688 40.28125 137.878906 44.984375 136.175781 45.695312 C 135.582031 45.9375 134.914062 45.835938 134.640625 45.449219 C 134.011719 44.542969 135.03125 41.714844 137.441406 37.734375 C 139.914062 33.636719 143.808594 29.113281 145.675781 28.183594 C 146.707031 27.667969 147.378906 27.667969 147.765625 28.183594 Z M 112.058594 34.632812 C 112.625 35.292969 113.785156 36.195312 114.636719 36.636719 C 115.035156 36.84375 115.371094 37.074219 115.371094 37.125 C 115.371094 37.292969 113.964844 39.554688 113.179688 40.640625 C 111.515625 42.941406 109.492188 44.917969 108.21875 45.5 C 106.605469 46.238281 105.394531 45.230469 105.640625 43.355469 C 105.820312 41.972656 106.800781 39.554688 107.996094 37.539062 C 108.550781 36.597656 110.410156 33.910156 110.769531 33.507812 L 111.027344 33.210938 L 111.347656 33.703125 C 111.53125 33.960938 111.851562 34.386719 112.058594 34.632812 Z M 112.058594 34.632812 "/>
<path style=" stroke:none;fill-rule:nonzero;fill:rgb(0%,0%,0%);fill-opacity:1;" d="M 33.335938 12.730469 C 30.9375 13.386719 27.636719 15.765625 24.800781 18.878906 C 19.914062 24.230469 17.054688 30.070312 17.300781 34.152344 C 17.414062 35.949219 18.148438 37.164062 19.53125 37.8125 C 21.449219 38.730469 24.078125 37.667969 27.742188 34.515625 C 30.007812 32.578125 31.492188 30.820312 33.65625 27.523438 C 34.703125 25.921875 35.65625 24.5 35.757812 24.347656 C 35.886719 24.164062 36.25 24.023438 36.957031 23.867188 C 37.511719 23.738281 38.09375 23.609375 38.246094 23.570312 C 38.503906 23.492188 38.453125 23.636719 37.808594 24.824219 C 35.292969 29.464844 34.546875 32.785156 35.488281 35.277344 C 35.863281 36.273438 37.046875 37.460938 38.078125 37.851562 C 39.742188 38.46875 41.289062 38.300781 43.480469 37.242188 C 45.492188 36.273438 47.152344 35.058594 49.601562 32.785156 C 50.273438 32.164062 50.855469 31.671875 50.878906 31.710938 C 50.90625 31.738281 50.839844 32.074219 50.738281 32.449219 C 49.976562 35.097656 50.285156 36.996094 51.601562 37.734375 C 53.328125 38.714844 56.269531 37.695312 58.898438 35.199219 C 59.386719 34.75 59.800781 34.375 59.824219 34.375 C 59.851562 34.375 59.863281 34.710938 59.839844 35.125 C 59.761719 36.53125 60.1875 37.4375 61.152344 37.875 C 62.558594 38.523438 64.570312 37.796875 67.09375 35.757812 C 69.195312 34.050781 72.417969 30.511719 74.933594 27.136719 L 76.042969 25.652344 L 75.179688 25.613281 C 74.40625 25.574219 74.289062 25.597656 74.082031 25.871094 C 71.890625 28.636719 69.003906 31.726562 67.855469 32.511719 C 67.339844 32.875 67.019531 32.992188 66.617188 33.003906 C 66.089844 33.015625 66.0625 33.003906 66.027344 32.601562 C 66 32.371094 66.089844 31.929688 66.230469 31.632812 C 66.359375 31.324219 68.886719 27.046875 71.839844 22.125 L 77.203125 13.179688 L 71.96875 13.179688 L 71.734375 13.621094 L 71.492188 14.074219 L 70.949219 13.570312 C 70.320312 12.988281 69.839844 12.714844 69.210938 12.597656 C 68 12.367188 65.625 13.285156 63.679688 14.730469 C 62.390625 15.6875 59.980469 18.027344 58.40625 19.835938 C 57.800781 20.546875 56.253906 22.484375 54.980469 24.152344 C 50.582031 29.902344 47.773438 32.746094 45.257812 33.984375 C 43.597656 34.8125 42.203125 34.566406 41.535156 33.328125 C 41.261719 32.808594 41.238281 32.640625 41.289062 31.59375 C 41.367188 30.109375 41.753906 28.945312 43.003906 26.425781 C 44.691406 23.003906 46.1875 20.804688 48.457031 18.453125 C 50.671875 16.140625 52.582031 14.875 53.585938 15.027344 C 54.515625 15.183594 54.953125 15.816406 54.667969 16.578125 C 54.554688 16.863281 54.449219 16.929688 54.101562 16.929688 C 53.507812 16.929688 52.414062 17.511719 51.949219 18.066406 C 51.007812 19.214844 50.648438 20.625 51.125 21.308594 C 51.472656 21.800781 52.117188 22.007812 52.761719 21.824219 C 53.457031 21.644531 54.683594 20.417969 55.328125 19.253906 C 56.65625 16.875 56.679688 14.808594 55.417969 13.605469 C 54.65625 12.882812 53.855469 12.613281 52.53125 12.613281 C 50.171875 12.625 48.03125 13.8125 44.394531 17.160156 C 41.90625 19.433594 41.238281 20.015625 40.230469 20.703125 C 39.214844 21.398438 37.949219 22.019531 37.28125 22.160156 L 36.855469 22.253906 L 37.0625 21.75 C 38.027344 19.5 38.441406 17.871094 38.464844 16.28125 C 38.476562 15.183594 38.441406 14.976562 38.117188 14.316406 C 37.71875 13.492188 37.203125 13.050781 36.3125 12.742188 C 35.578125 12.496094 34.210938 12.484375 33.335938 12.730469 Z M 35.835938 15.054688 C 36.46875 15.378906 36.671875 15.933594 36.660156 17.1875 C 36.648438 18.425781 36.15625 20.105469 35.410156 21.515625 C 35.011719 22.253906 34.972656 22.292969 34.535156 22.277344 C 33.875 22.253906 32.496094 21.582031 31.929688 21 C 30.652344 19.679688 30.835938 17.847656 32.394531 16.269531 C 33.128906 15.546875 34.390625 14.859375 35.023438 14.859375 C 35.269531 14.859375 35.628906 14.953125 35.835938 15.054688 Z M 69.917969 15.121094 C 70.652344 15.390625 70.5625 15.636719 68.191406 19.667969 C 63.808594 27.125 61.902344 29.980469 60.03125 31.894531 C 58.9375 32.992188 58.214844 33.40625 57.558594 33.289062 C 56.332031 33.054688 56.460938 31.648438 57.996094 28.558594 C 59.308594 25.921875 60.804688 23.699219 63.898438 19.785156 C 66.230469 16.839844 67.585938 15.546875 68.746094 15.171875 C 69.414062 14.964844 69.519531 14.964844 69.917969 15.121094 Z M 29.816406 21.269531 C 30.488281 22.1875 31.480469 22.886719 32.910156 23.46875 C 33.464844 23.6875 33.953125 23.90625 33.992188 23.957031 C 34.082031 24.035156 32.703125 26.246094 31.648438 27.746094 C 29.339844 30.960938 26.902344 33.082031 25.496094 33.082031 C 22.726562 33.082031 23.539062 28.777344 27.367188 23.09375 C 28.773438 21.011719 29.183594 20.429688 29.222656 20.457031 C 29.222656 20.46875 29.492188 20.832031 29.816406 21.269531 Z M 29.816406 21.269531 "/>
<path style=" stroke:none;fill-rule:nonzero;fill:rgb(0%,0%,0%);fill-opacity:1;" d="M 79.664062 15.339844 C 78.929688 16.539062 78.3125 17.546875 78.285156 17.601562 C 78.257812 17.664062 79.328125 17.703125 80.667969 17.703125 L 83.09375 17.703125 L 84.304688 15.726562 C 84.976562 14.652344 85.59375 13.632812 85.695312 13.464844 L 85.878906 13.179688 L 80.980469 13.179688 Z M 79.664062 15.339844 "/>
</g>
</svg>
