<?xml version="1.0" encoding="UTF-8"?>
<svg xmlns="http://www.w3.org/2000/svg" xmlns:xlink="http://www.w3.org/1999/xlink" width="120px" height="68px" viewBox="0 0 120 68" version="1.1">
<g id="surface1">
<path style=" stroke:none;fill-rule:nonzero;fill:rgb(0%,0%,0%);fill-opacity:1;" d="M 56.9375 11.753906 C 56.929688 11.757812 56.410156 11.777344 55.78125 11.785156 C 55.152344 11.800781 54.589844 11.816406 54.53125 11.820312 C 54.472656 11.828125 54.132812 11.84375 53.78125 11.851562 C 53.429688 11.863281 53.027344 11.878906 52.890625 11.882812 C 52.753906 11.894531 52.332031 11.914062 51.953125 11.929688 C 50.929688 11.980469 48.898438 12.109375 47.75 12.199219 C 31.449219 13.472656 17.402344 17.261719 8.96875 22.660156 C 6.007812 24.558594 3.785156 26.648438 2.433594 28.816406 C 2.105469 29.335938 1.621094 30.3125 1.441406 30.804688 C 1.023438 31.960938 0.863281 32.832031 0.863281 33.984375 C 0.863281 34.710938 0.894531 35.0625 1.015625 35.683594 C 1.636719 38.84375 4.085938 41.953125 8.125 44.710938 C 16.960938 50.746094 32.632812 54.90625 50.59375 55.988281 C 51.679688 56.054688 53.136719 56.125 53.875 56.148438 C 54.210938 56.15625 54.535156 56.171875 54.59375 56.179688 C 55.359375 56.261719 64.472656 56.261719 65.375 56.179688 C 65.453125 56.171875 65.773438 56.15625 66.09375 56.148438 C 66.414062 56.136719 67.101562 56.109375 67.625 56.085938 C 81.222656 55.421875 93.796875 52.980469 103.21875 49.179688 C 111.191406 45.964844 116.445312 41.957031 118.335938 37.660156 C 118.683594 36.863281 118.914062 36.082031 119.054688 35.210938 C 119.125 34.769531 119.132812 33.320312 119.070312 32.882812 C 118.601562 29.726562 116.59375 26.851562 112.925781 24.078125 C 105.6875 18.605469 92.535156 14.429688 77.015625 12.675781 C 73.703125 12.300781 69.566406 11.980469 66.859375 11.882812 C 66.570312 11.875 66.273438 11.859375 66.203125 11.851562 C 66.132812 11.847656 65.691406 11.832031 65.21875 11.816406 C 64.746094 11.808594 64.324219 11.792969 64.28125 11.785156 C 64.183594 11.765625 56.960938 11.734375 56.9375 11.753906 Z M 63.496094 13.710938 C 63.574219 13.714844 64.0625 13.730469 64.578125 13.742188 C 65.09375 13.75 65.59375 13.765625 65.6875 13.773438 C 65.78125 13.78125 66.105469 13.796875 66.40625 13.804688 C 67.804688 13.851562 70.171875 13.992188 72.046875 14.136719 C 89.621094 15.5 104.398438 19.8125 111.757812 25.726562 C 112.894531 26.636719 113.964844 27.714844 114.695312 28.6875 C 116.695312 31.335938 117.171875 34.167969 116.082031 36.902344 C 114.023438 42.0625 106.496094 46.746094 95.078125 49.976562 C 86.773438 52.324219 76.648438 53.824219 66.453125 54.210938 C 65.992188 54.226562 65.476562 54.25 65.3125 54.257812 C 63.429688 54.351562 56.933594 54.34375 54.246094 54.242188 C 38.089844 53.632812 23.773438 50.683594 14.203125 45.996094 C 7.59375 42.761719 3.828125 38.890625 3.359375 34.855469 C 2.824219 30.246094 6.609375 25.753906 14.171875 22.035156 C 22.535156 17.917969 34.867188 15.078125 48.734375 14.074219 C 50.585938 13.941406 53.085938 13.808594 54.46875 13.769531 C 54.855469 13.761719 55.214844 13.746094 55.265625 13.742188 C 55.320312 13.734375 56.054688 13.71875 56.90625 13.707031 C 57.757812 13.695312 58.460938 13.679688 58.46875 13.671875 C 58.488281 13.65625 63.308594 13.691406 63.496094 13.710938 Z M 63.496094 13.710938 "/>
<path style=" stroke:none;fill-rule:nonzero;fill:rgb(0%,0%,0%);fill-opacity:1;" d="M 58.996094 15.375 C 58.992188 15.382812 58.195312 15.394531 57.234375 15.40625 C 56.273438 15.417969 55.445312 15.433594 55.390625 15.441406 C 55.339844 15.449219 54.960938 15.460938 54.546875 15.472656 C 54.132812 15.484375 53.664062 15.5 53.5 15.503906 C 53.335938 15.515625 52.746094 15.542969 52.1875 15.566406 C 47.761719 15.773438 43.042969 16.222656 38.734375 16.847656 C 29.019531 18.25 20.636719 20.597656 14.703125 23.585938 C 9.429688 26.242188 6.242188 29.335938 5.503906 32.511719 C 5.347656 33.195312 5.292969 34.109375 5.375 34.769531 C 5.640625 36.921875 6.976562 39.027344 9.316406 40.992188 C 16.050781 46.640625 30.539062 50.84375 47.890625 52.179688 C 50.773438 52.402344 54.003906 52.558594 56.6875 52.609375 C 58.640625 52.644531 64.816406 52.609375 65.132812 52.558594 C 65.171875 52.550781 65.519531 52.539062 65.90625 52.53125 C 66.292969 52.515625 66.726562 52.5 66.875 52.496094 C 67.023438 52.484375 67.585938 52.457031 68.125 52.429688 C 77.539062 51.972656 87.039062 50.535156 94.566406 48.421875 C 97.730469 47.535156 100.761719 46.46875 103.21875 45.386719 C 108.667969 42.980469 112.296875 40.1875 113.808594 37.238281 C 114.382812 36.117188 114.632812 35.140625 114.628906 33.984375 C 114.628906 32.3125 114.003906 30.726562 112.710938 29.09375 C 112.328125 28.617188 111.320312 27.589844 110.78125 27.128906 C 109.066406 25.675781 106.773438 24.265625 104.101562 23.027344 C 95.351562 18.960938 82.292969 16.277344 67.8125 15.566406 C 66.335938 15.496094 64.945312 15.449219 63.265625 15.410156 C 62.304688 15.386719 59.011719 15.359375 58.996094 15.375 Z M 47.140625 19.375 C 47.242188 19.382812 47.492188 19.398438 47.6875 19.410156 C 48.246094 19.4375 49.445312 19.542969 50.21875 19.632812 C 51.699219 19.796875 52.914062 19.976562 56.03125 20.496094 C 59.347656 21.042969 60.707031 21.242188 62.421875 21.4375 C 67.46875 22.003906 71.738281 21.851562 75.875 20.945312 C 76.640625 20.777344 76.832031 20.796875 77.089844 21.058594 C 77.273438 21.242188 77.328125 21.449219 77.28125 21.789062 C 77.210938 22.304688 76.988281 22.714844 76.527344 23.171875 C 75.742188 23.953125 74.28125 24.726562 72.777344 25.152344 C 71.410156 25.542969 70.207031 25.671875 68.492188 25.601562 C 66.765625 25.53125 65.460938 25.351562 63.53125 24.914062 C 62.507812 24.679688 61.636719 24.453125 58.90625 23.691406 C 57.554688 23.316406 56.496094 23.042969 55.746094 22.875 L 55.164062 22.738281 L 55.167969 22.949219 C 55.167969 23.089844 55.152344 23.1875 55.125 23.226562 C 55.101562 23.261719 54.757812 23.53125 54.371094 23.824219 C 52.957031 24.890625 52.230469 25.515625 51.234375 26.519531 C 50.289062 27.472656 49.777344 28.085938 49.195312 28.964844 C 48.949219 29.335938 48.5625 29.988281 48.5625 30.03125 C 48.5625 30.074219 48.640625 30.09375 48.769531 30.078125 C 48.835938 30.070312 49.375 30.042969 49.96875 30.019531 C 51.304688 29.957031 52.515625 29.878906 52.605469 29.847656 C 52.667969 29.824219 52.671875 29.804688 52.675781 29.289062 C 52.679688 28.824219 52.6875 28.71875 52.757812 28.449219 C 53.011719 27.488281 53.660156 26.710938 54.476562 26.382812 C 55.023438 26.160156 55.582031 26.183594 56.085938 26.441406 C 56.160156 26.480469 56.308594 26.59375 56.421875 26.699219 C 56.777344 27.039062 56.929688 27.46875 56.898438 28.042969 C 56.832031 29.148438 56.058594 30.179688 54.984375 30.601562 C 54.847656 30.652344 54.703125 30.710938 54.664062 30.726562 C 54.5625 30.769531 54.574219 30.886719 54.695312 31.007812 C 54.75 31.066406 54.984375 31.246094 55.210938 31.410156 C 55.4375 31.570312 55.636719 31.730469 55.65625 31.765625 C 55.753906 31.949219 55.652344 32.207031 55.417969 32.371094 C 55.164062 32.550781 54.925781 32.515625 54.441406 32.222656 C 54.046875 31.988281 53.808594 31.796875 53.476562 31.460938 C 53.320312 31.300781 53.164062 31.15625 53.132812 31.136719 C 53.09375 31.121094 52.976562 31.105469 52.867188 31.105469 C 52.226562 31.105469 48.066406 31.503906 47.621094 31.609375 C 47.539062 31.628906 47.445312 31.671875 47.414062 31.710938 C 47.378906 31.75 47.140625 32.125 46.882812 32.550781 C 44.773438 36.035156 43.59375 37.84375 42.292969 39.589844 C 41.347656 40.859375 40.621094 41.714844 39.734375 42.609375 C 37.480469 44.878906 35.382812 46.011719 33 46.242188 C 31.667969 46.367188 30.621094 46.273438 29.585938 45.929688 C 27.351562 45.1875 25.878906 43.4375 25.542969 41.128906 C 25.109375 38.113281 26.683594 35.121094 29.421875 33.765625 C 30.621094 33.171875 31.476562 33.035156 32.03125 33.34375 C 32.304688 33.492188 32.507812 33.914062 32.441406 34.199219 C 32.390625 34.410156 32.277344 34.542969 32.011719 34.6875 C 31.183594 35.15625 30.667969 35.53125 30.136719 36.0625 C 29.417969 36.777344 29 37.496094 28.835938 38.28125 C 28.757812 38.679688 28.773438 39.402344 28.867188 39.761719 C 29.210938 41.015625 30.046875 41.792969 31.351562 42.082031 C 31.753906 42.167969 32.738281 42.160156 33.21875 42.066406 C 34.734375 41.761719 36.089844 41.023438 37.558594 39.703125 C 38.085938 39.230469 39.445312 37.84375 39.941406 37.273438 C 41.265625 35.753906 42.242188 34.515625 43.382812 32.914062 C 43.652344 32.53125 43.875 32.191406 43.875 32.160156 C 43.875 32.105469 43.855469 32.101562 43.523438 32.121094 C 42.484375 32.179688 41.460938 32.53125 40.570312 33.144531 C 40.015625 33.519531 39.992188 33.535156 39.789062 33.535156 C 39.578125 33.535156 39.488281 33.503906 39.351562 33.386719 C 39.195312 33.257812 39.144531 33.132812 39.144531 32.894531 C 39.144531 32.726562 39.160156 32.660156 39.238281 32.515625 C 39.320312 32.375 39.386719 32.308594 39.644531 32.132812 C 39.8125 32.015625 40.207031 31.792969 40.515625 31.640625 C 41.570312 31.113281 42.558594 30.835938 44.570312 30.503906 C 44.996094 30.4375 45.375 30.363281 45.414062 30.34375 C 45.488281 30.3125 45.613281 30.148438 46.902344 28.410156 C 47.757812 27.261719 47.894531 27.089844 48.539062 26.390625 C 49.167969 25.703125 49.964844 24.945312 50.78125 24.265625 C 51.625 23.5625 52.246094 23.144531 53.261719 22.597656 C 53.433594 22.507812 53.578125 22.414062 53.585938 22.394531 C 53.613281 22.308594 53.394531 22.246094 52.203125 22.019531 C 48.867188 21.382812 47.324219 21.175781 45.53125 21.136719 C 43.621094 21.089844 41.917969 21.324219 40.382812 21.851562 C 38.914062 22.355469 37.804688 23.078125 37.039062 24.035156 C 36.484375 24.734375 36.195312 25.433594 36.164062 26.175781 C 36.148438 26.617188 36.210938 26.945312 36.378906 27.285156 C 36.722656 27.96875 37.589844 28.300781 38.574219 28.128906 C 39.941406 27.890625 41.605469 26.675781 42.597656 25.199219 C 42.769531 24.941406 42.863281 24.855469 43.035156 24.800781 C 43.304688 24.71875 43.585938 24.929688 43.65625 25.265625 C 43.722656 25.589844 43.636719 25.882812 43.234375 26.695312 C 42.105469 28.984375 40.390625 30.640625 38.488281 31.277344 C 36.246094 32.027344 34.210938 31.414062 33.199219 29.679688 C 32.328125 28.1875 32.472656 26.039062 33.558594 24.273438 C 34.636719 22.527344 36.65625 21.078125 39.203125 20.226562 C 40.792969 19.695312 42.273438 19.445312 44.3125 19.363281 C 44.945312 19.339844 46.773438 19.34375 47.140625 19.375 Z M 94.683594 27.390625 C 94.761719 27.429688 94.789062 27.503906 94.742188 27.550781 C 94.71875 27.574219 94.664062 27.648438 94.625 27.71875 C 94.546875 27.84375 94.179688 28.425781 91.65625 32.347656 C 87.261719 39.183594 85.429688 42.136719 85.054688 42.972656 C 84.960938 43.191406 84.9375 43.273438 84.9375 43.449219 C 84.9375 43.976562 85.230469 44.277344 85.75 44.273438 C 86.445312 44.269531 87.179688 43.847656 88.554688 42.664062 C 88.804688 42.445312 89.644531 41.640625 90.410156 40.871094 C 91.738281 39.542969 91.804688 39.476562 91.914062 39.476562 C 92.019531 39.476562 92.074219 39.519531 92.433594 39.839844 C 92.84375 40.207031 92.875 40.246094 92.875 40.375 C 92.875 40.4375 92.332031 41.128906 91.898438 41.617188 C 90.699219 42.964844 89.195312 44.394531 88.167969 45.167969 C 87.171875 45.910156 86.085938 46.445312 85.117188 46.660156 C 84.660156 46.765625 83.910156 46.765625 83.554688 46.660156 C 82.898438 46.472656 82.433594 46.078125 82.144531 45.460938 C 82.023438 45.207031 81.90625 44.789062 81.90625 44.625 C 81.90625 44.566406 81.890625 44.480469 81.871094 44.421875 C 81.816406 44.261719 81.722656 44.292969 81.429688 44.566406 C 80.324219 45.605469 79.027344 46.316406 77.890625 46.5 C 77.5625 46.550781 76.902344 46.546875 76.609375 46.480469 C 74.988281 46.140625 73.972656 44.9375 73.746094 43.089844 C 73.703125 42.730469 73.726562 41.863281 73.785156 41.46875 C 73.820312 41.257812 73.816406 41.207031 73.785156 41.164062 C 73.71875 41.085938 73.664062 41.101562 73.363281 41.300781 C 72.945312 41.570312 72.664062 41.714844 72.152344 41.929688 C 71.589844 42.167969 71.214844 42.265625 70.710938 42.3125 C 69.898438 42.394531 69.277344 42.230469 68.695312 41.785156 C 68.113281 41.339844 67.726562 40.578125 67.621094 39.695312 C 67.578125 39.296875 67.574219 39.28125 67.511719 39.296875 C 67.449219 39.308594 66.316406 41.058594 63.6875 45.203125 C 63.269531 45.863281 63.050781 46.179688 62.984375 46.21875 C 62.898438 46.273438 62.796875 46.277344 61.382812 46.277344 L 59.878906 46.277344 L 59.792969 46.207031 C 59.726562 46.148438 59.710938 46.113281 59.726562 46.050781 C 59.757812 45.933594 60.078125 45.410156 61.191406 43.660156 C 63.277344 40.371094 64.863281 37.722656 65.160156 37.019531 C 65.351562 36.570312 65.394531 36.203125 65.285156 35.96875 C 64.835938 34.964844 62.765625 36.3125 60.433594 39.132812 C 59.914062 39.757812 58.933594 41.027344 58.59375 41.511719 C 57.695312 42.800781 56.738281 43.925781 55.984375 44.589844 C 54.449219 45.941406 52.664062 46.640625 51.113281 46.5 C 49.195312 46.332031 47.835938 45.296875 47.234375 43.566406 C 47.117188 43.234375 47.054688 43.128906 46.976562 43.128906 C 46.949219 43.128906 46.734375 43.335938 46.492188 43.582031 C 46.058594 44.039062 45.570312 44.476562 45.117188 44.8125 C 44.703125 45.117188 44.609375 45.125 44.382812 44.882812 C 44.042969 44.535156 43.71875 44.035156 43.71875 43.882812 C 43.722656 43.761719 43.78125 43.683594 44.0625 43.441406 C 44.894531 42.722656 45.660156 41.921875 45.984375 41.429688 C 46.222656 41.070312 46.441406 40.636719 46.640625 40.125 C 46.8125 39.683594 47.242188 38.78125 47.472656 38.367188 C 47.722656 37.917969 48.246094 37.140625 48.550781 36.753906 C 49.101562 36.0625 49.925781 35.289062 50.597656 34.84375 C 51.28125 34.382812 52.304688 33.878906 53 33.660156 C 54.335938 33.230469 55.210938 33.195312 55.464844 33.554688 C 55.554688 33.683594 55.84375 34.488281 55.84375 34.609375 C 55.84375 34.734375 55.753906 34.828125 55.578125 34.882812 C 55.347656 34.953125 54.789062 35.191406 54.464844 35.355469 C 53.351562 35.917969 52.289062 36.765625 51.511719 37.699219 C 51.082031 38.21875 50.660156 38.992188 50.441406 39.652344 C 50.242188 40.257812 50.203125 40.488281 50.203125 41.113281 C 50.203125 41.597656 50.210938 41.695312 50.273438 41.914062 C 50.5 42.703125 51.054688 43.273438 51.765625 43.460938 C 52.007812 43.523438 52.542969 43.527344 52.835938 43.464844 C 54.632812 43.074219 56.230469 41.28125 56.796875 39.015625 C 56.980469 38.277344 57.015625 37.980469 57.015625 37.070312 C 57.015625 36.152344 56.984375 35.890625 56.792969 35.101562 C 56.65625 34.542969 56.667969 34.445312 56.902344 34.21875 C 57.152344 33.976562 57.984375 33.503906 58.226562 33.472656 C 58.398438 33.449219 58.605469 33.519531 58.761719 33.65625 C 59.023438 33.894531 59.445312 34.875 59.589844 35.59375 C 59.660156 35.945312 59.71875 36.4375 59.71875 36.675781 C 59.71875 36.863281 59.757812 36.960938 59.839844 36.960938 C 59.875 36.960938 60.035156 36.804688 60.238281 36.570312 C 61.132812 35.554688 62.402344 34.296875 62.960938 33.875 C 63.628906 33.371094 64.429688 32.984375 65.140625 32.816406 C 65.449219 32.742188 66.207031 32.734375 66.46875 32.800781 C 66.5625 32.824219 66.757812 32.894531 66.894531 32.964844 C 67.574219 33.289062 67.945312 34.003906 67.988281 35.070312 C 67.996094 35.289062 68.007812 35.496094 68.019531 35.535156 C 68.046875 35.675781 68.15625 35.605469 68.378906 35.3125 C 68.492188 35.160156 68.679688 34.933594 68.789062 34.804688 C 69.03125 34.535156 69.671875 33.988281 69.976562 33.785156 C 70.636719 33.359375 71.4375 33.117188 72.21875 33.117188 C 72.910156 33.117188 73.382812 33.3125 73.863281 33.796875 C 74.101562 34.035156 74.167969 34.125 74.292969 34.378906 C 74.488281 34.777344 74.539062 35.042969 74.523438 35.527344 C 74.5 36.082031 74.375 36.449219 74.054688 36.921875 C 73.574219 37.621094 72.789062 38.027344 72.078125 37.933594 C 71.101562 37.808594 70.488281 36.996094 70.632812 36.023438 C 70.652344 35.894531 70.648438 35.855469 70.609375 35.8125 C 70.527344 35.734375 70.46875 35.753906 70.335938 35.894531 C 69.25 37.074219 69.023438 38.71875 69.835938 39.539062 C 70.164062 39.867188 70.660156 40.042969 71.125 39.996094 C 72.265625 39.878906 73.460938 39.136719 75.609375 37.195312 C 75.9375 36.898438 76.351562 36.523438 76.53125 36.363281 C 77.257812 35.707031 78.097656 35.03125 78.59375 34.691406 C 79.472656 34.101562 80.648438 33.621094 81.625 33.46875 C 81.929688 33.417969 82.632812 33.425781 82.972656 33.484375 C 83.316406 33.542969 83.941406 33.746094 84.1875 33.878906 C 84.464844 34.027344 84.773438 34.277344 84.976562 34.515625 C 85.195312 34.78125 85.441406 35.273438 85.515625 35.597656 C 85.546875 35.726562 85.582031 35.835938 85.601562 35.84375 C 85.710938 35.914062 85.789062 35.816406 86.476562 34.761719 C 89.804688 29.703125 90.664062 28.378906 91 27.8125 C 91.195312 27.484375 91.242188 27.421875 91.328125 27.386719 C 91.417969 27.351562 94.617188 27.351562 94.683594 27.390625 Z M 94.683594 27.390625 "/>
<path style=" stroke:none;fill-rule:nonzero;fill:rgb(0%,0%,0%);fill-opacity:1;" d="M 54.851562 27.355469 C 54.542969 27.496094 54.203125 27.933594 54.0625 28.363281 C 53.980469 28.621094 53.945312 29.09375 53.996094 29.253906 C 54.042969 29.402344 54.117188 29.421875 54.320312 29.355469 C 54.613281 29.261719 54.882812 29.089844 55.125 28.839844 C 55.570312 28.390625 55.757812 27.828125 55.578125 27.484375 C 55.488281 27.308594 55.105469 27.242188 54.851562 27.355469 Z M 54.851562 27.355469 "/>
<path style=" stroke:none;fill-rule:nonzero;fill:rgb(0%,0%,0%);fill-opacity:1;" d="M 81.949219 35.726562 C 81.023438 35.984375 79.992188 36.777344 78.996094 38.015625 C 78.085938 39.144531 77.503906 40.339844 77.292969 41.5 C 77.226562 41.875 77.203125 42.507812 77.246094 42.726562 C 77.335938 43.164062 77.664062 43.589844 78.015625 43.726562 C 78.175781 43.792969 78.257812 43.804688 78.5625 43.804688 C 78.882812 43.804688 78.953125 43.792969 79.210938 43.703125 C 79.582031 43.574219 79.84375 43.441406 80.25 43.171875 C 80.898438 42.734375 81.597656 42.105469 82.046875 41.539062 C 82.507812 40.960938 83.046875 40.105469 83.40625 39.386719 L 83.589844 39.011719 L 83.453125 38.929688 C 83.378906 38.882812 83.304688 38.824219 83.289062 38.796875 C 83.242188 38.722656 83.296875 38.511719 83.429688 38.203125 C 83.671875 37.65625 83.777344 37.101562 83.71875 36.71875 C 83.648438 36.277344 83.4375 35.992188 83.035156 35.800781 C 82.828125 35.699219 82.773438 35.6875 82.488281 35.679688 C 82.246094 35.671875 82.117188 35.679688 81.949219 35.726562 Z M 81.949219 35.726562 "/>
</g>
</svg>
