<?xml version="1.0" encoding="UTF-8"?>
<svg xmlns="http://www.w3.org/2000/svg" xmlns:xlink="http://www.w3.org/1999/xlink" width="100px" height="100px" viewBox="0 0 100 100" version="1.1">
<g id="surface1">
<path style=" stroke:none;fill-rule:nonzero;fill:rgb(0%,0%,0%);fill-opacity:1;" d="M 0 38.898438 L 0 77.832031 L 3.765625 74.066406 C 7.5 70.367188 8.464844 69.765625 9.300781 70.765625 C 9.566406 71.101562 9.535156 71.5 9.265625 72.265625 L 8.832031 73.332031 L 26.601562 91.101562 L 27.667969 90.699219 C 28.464844 90.433594 28.867188 90.433594 29.199219 90.699219 C 30.199219 91.535156 29.632812 92.464844 25.933594 96.234375 L 22.199219 100 L 36.234375 100 C 46.199219 100 50.367188 99.898438 50.535156 99.632812 C 50.667969 99.398438 48.667969 97.167969 45.800781 94.300781 C 41.800781 90.300781 40.667969 89.332031 40 89.398438 C 38.535156 89.566406 38.933594 88.566406 41.332031 86.167969 L 43.667969 83.832031 L 49.898438 90.066406 L 56.167969 96.332031 L 54.332031 98.167969 L 52.535156 100 L 100 100 L 100 52.535156 L 97.898438 54.601562 C 95.601562 56.867188 94.464844 57.300781 94.765625 55.734375 C 94.933594 54.933594 94.398438 54.300781 89.398438 49.234375 L 83.832031 43.667969 L 87.832031 39.667969 L 93.398438 45.199219 C 96.566406 48.367188 99.132812 50.667969 99.398438 50.601562 C 99.734375 50.464844 99.832031 47.832031 99.933594 36.300781 L 100 22.167969 L 97.832031 24.332031 L 95.667969 26.464844 L 94.832031 25.632812 L 93.964844 24.800781 L 94.800781 22.964844 C 95.867188 20.765625 95.898438 19.035156 94.964844 16.167969 C 94.367188 14.398438 94.332031 13.898438 94.667969 13.5 C 95.332031 12.699219 95.699219 12.867188 97.898438 15.066406 L 100 17.132812 L 100 0 L 82.535156 0 L 84.433594 1.933594 C 86.398438 3.933594 86.699219 4.632812 85.832031 5.332031 C 85.433594 5.667969 84.964844 5.601562 83.332031 5 C 80.898438 4.101562 78.300781 4.234375 76.433594 5.332031 L 75.234375 6.035156 L 74.367188 5.199219 L 73.535156 4.332031 L 75.667969 2.167969 L 77.800781 0 L 0 0 Z M 83.5 16.667969 L 94.5 27.667969 L 90.265625 31.867188 C 86.933594 35.199219 85.898438 36.035156 85.265625 35.933594 C 84.566406 35.832031 84.5 35.699219 84.601562 34.167969 L 84.667969 32.5 L 67.5 15.332031 L 65.832031 15.398438 C 64.300781 15.5 64.167969 15.433594 64.066406 14.699219 C 63.964844 14.066406 64.734375 13.101562 68.035156 9.800781 C 70.300781 7.535156 72.234375 5.667969 72.332031 5.667969 C 72.433594 5.667969 77.464844 10.632812 83.5 16.667969 Z M 88.265625 11.464844 C 92.300781 15.535156 92.765625 16.300781 91.464844 16.800781 C 91.167969 16.898438 90.265625 16.699219 89.433594 16.300781 C 88.398438 15.832031 87.464844 15.667969 86.535156 15.765625 C 85.433594 15.867188 85 15.734375 84.265625 15.066406 C 83.535156 14.398438 83.433594 14.101562 83.699219 13.433594 C 84.035156 12.5 83.832031 11.332031 82.964844 9.667969 C 82.332031 8.332031 82.601562 7.332031 83.632812 7.332031 C 83.933594 7.332031 86.035156 9.199219 88.265625 11.464844 Z M 42.964844 13.898438 C 42.699219 14.199219 42.433594 14.234375 42 14 C 41.167969 13.566406 38.800781 13.566406 37.964844 14.035156 C 37.464844 14.300781 37.167969 14.265625 36.800781 13.964844 C 36.367188 13.601562 36.566406 13.300781 38.066406 11.765625 L 39.800781 10 L 41.566406 11.734375 C 42.898438 13.035156 43.234375 13.566406 42.964844 13.898438 Z M 41.601562 20.101562 L 47.332031 25.832031 L 45.035156 28.132812 C 42.765625 30.398438 41.734375 30.765625 42.132812 29.199219 C 42.265625 28.601562 41.464844 27.632812 37.699219 23.867188 C 33.867188 20.035156 32.964844 19.300781 32.367188 19.5 C 31.867188 19.632812 31.601562 19.535156 31.464844 19.167969 C 31.300781 18.765625 31.867188 17.964844 33.367188 16.464844 C 34.535156 15.300781 35.566406 14.332031 35.667969 14.332031 C 35.765625 14.332031 38.433594 16.933594 41.601562 20.101562 Z M 44.066406 17.234375 C 45.332031 18.464844 46.332031 19.601562 46.332031 19.765625 C 46.332031 19.933594 45.832031 19.964844 45.265625 19.867188 C 44.667969 19.734375 43.800781 19.601562 43.332031 19.566406 C 42.066406 19.464844 41.667969 19.066406 41.667969 17.964844 C 41.667969 17.398438 41.5 16.667969 41.332031 16.300781 C 41 15.667969 41.132812 15 41.601562 15 C 41.734375 15 42.832031 16 44.066406 17.234375 Z M 63.132812 16.433594 C 63.699219 16.832031 63.699219 17 63.300781 18.132812 L 62.867188 19.367188 L 71.332031 27.867188 C 76 32.535156 80.066406 36.5 80.367188 36.667969 C 80.699219 36.867188 81.300781 36.832031 81.964844 36.566406 C 82.898438 36.234375 83.101562 36.234375 83.5 36.765625 C 83.734375 37.101562 83.867188 37.632812 83.765625 37.964844 C 83.535156 38.832031 74.566406 47.667969 73.933594 47.667969 C 73.066406 47.667969 72.566406 46.765625 72.867188 45.765625 C 73 45.234375 73.132812 44.734375 73.132812 44.601562 C 73.167969 44.367188 59.265625 30.265625 59.167969 30.433594 C 59.132812 30.464844 61.632812 35.132812 64.699219 40.832031 C 67.800781 46.5 70.332031 51.367188 70.332031 51.601562 C 70.332031 51.832031 70.132812 52.101562 69.867188 52.199219 C 69.632812 52.300781 63.964844 49.632812 57.300781 46.300781 C 42.832031 39.101562 42.898438 39.101562 41.464844 39.898438 C 40.566406 40.367188 40.300781 40.398438 39.867188 40.035156 C 39.566406 39.765625 39.332031 39.332031 39.332031 39.035156 C 39.332031 38.734375 41.167969 36.632812 43.433594 34.398438 L 47.535156 30.300781 L 53.464844 33.167969 C 56.765625 34.734375 59.464844 35.964844 59.535156 35.933594 C 59.566406 35.867188 58.199219 33.265625 56.5 30.167969 L 53.398438 24.5 L 57.632812 20.234375 C 59.964844 17.898438 62.035156 16 62.199219 16 C 62.398438 16 62.800781 16.199219 63.132812 16.433594 Z M 49.933594 19.765625 L 51.667969 21.535156 L 49.832031 23.332031 C 48.433594 24.734375 47.898438 25.035156 47.601562 24.734375 C 47.300781 24.433594 47.300781 24.167969 47.601562 23.5 C 48.101562 22.433594 48.101562 20.5 47.632812 19.632812 C 47.265625 18.933594 47.433594 18 47.933594 18 C 48.066406 18 48.964844 18.800781 49.933594 19.765625 Z M 31.167969 20.433594 C 31.167969 21.765625 39.800781 30.398438 41 30.265625 C 42.5 30.101562 42.066406 31.132812 39.535156 33.632812 C 37.933594 35.234375 36.867188 36.035156 36.566406 35.898438 C 36.234375 35.765625 36.132812 35.464844 36.234375 35 C 36.367188 34.433594 35.964844 33.832031 34.464844 32.300781 C 33.398438 31.234375 32.367188 30.332031 32.199219 30.332031 C 32.035156 30.332031 31.601562 30.601562 31.265625 30.898438 C 30.367188 31.699219 29.632812 30.964844 30.433594 30.066406 C 30.734375 29.734375 31 29.300781 31 29.132812 C 31 28.964844 30.132812 27.964844 29.066406 26.898438 C 27.601562 25.464844 27 25.066406 26.464844 25.199219 C 26.066406 25.300781 25.632812 25.199219 25.5 25 C 25.199219 24.535156 30.300781 19.265625 30.832031 19.433594 C 31 19.5 31.167969 19.964844 31.167969 20.433594 Z M 25.332031 26.265625 C 25.332031 27.601562 34.167969 36.398438 35.199219 36.132812 C 36.832031 35.699219 36.367188 36.800781 33.800781 39.367188 C 31.035156 42.132812 30.199219 42.566406 30.398438 41.167969 C 30.464844 40.5 29.667969 39.5 25.832031 35.667969 C 21.933594 31.765625 21.066406 31.066406 20.433594 31.199219 C 18.964844 31.566406 19.601562 30.234375 22.066406 27.765625 C 23.398438 26.433594 24.667969 25.332031 24.898438 25.332031 C 25.167969 25.332031 25.332031 25.734375 25.332031 26.265625 Z M 22.667969 35.265625 C 22.667969 36.066406 21.699219 36.066406 20.433594 35.199219 C 19.734375 34.734375 18.765625 34.332031 18.300781 34.332031 C 17.800781 34.332031 17.234375 34.101562 17 33.832031 C 16.632812 33.398438 16.734375 33.132812 17.699219 32.132812 L 18.800781 31 L 20.734375 32.898438 C 21.800781 33.964844 22.667969 35 22.667969 35.265625 Z M 27 44.234375 C 27.464844 44.132812 27.765625 44.234375 27.898438 44.566406 C 28.035156 44.867188 27.234375 45.933594 25.632812 47.535156 C 23.132812 50.066406 22.101562 50.5 22.265625 49 C 22.332031 48.332031 21.398438 47.234375 17.167969 43 L 12 37.832031 L 15.832031 34 L 21.035156 39.199219 C 25.332031 43.464844 26.398438 44.398438 27 44.234375 Z M 93.066406 38.566406 C 94.132812 39.632812 95 40.667969 95 40.933594 C 95 41.734375 94.101562 41.699219 92.832031 40.867188 C 92.132812 40.398438 91.199219 40 90.734375 40 C 90.265625 40 89.601562 39.734375 89.265625 39.433594 C 88.667969 38.898438 88.699219 38.832031 89.734375 37.765625 C 90.300781 37.167969 90.867188 36.667969 90.964844 36.667969 C 91.066406 36.667969 92 37.535156 93.066406 38.566406 Z M 11.933594 39.066406 C 12.167969 39.300781 12.332031 39.832031 12.332031 40.300781 C 12.332031 40.734375 12.699219 41.765625 13.199219 42.566406 C 14 43.964844 14.035156 44.667969 13.234375 44.667969 C 13.035156 44.667969 12 43.800781 10.933594 42.765625 L 9 40.867188 L 10.066406 39.765625 C 11.265625 38.535156 11.367188 38.5 11.933594 39.066406 Z M 44.898438 45.667969 C 48.964844 47.667969 52.332031 51.035156 54.367188 55.167969 C 55.800781 58.066406 55.832031 58.167969 55.832031 61.464844 C 55.832031 64.566406 55.734375 65 54.734375 67.035156 C 53.332031 69.964844 52.898438 70.332031 51.867188 69.367188 C 51.199219 68.734375 51.101562 68.398438 51.234375 67.300781 L 51.433594 65.964844 L 42.734375 57.265625 L 34.066406 48.566406 L 32.734375 48.734375 C 31.601562 48.898438 31.265625 48.800781 30.535156 48.035156 L 29.667969 47.132812 L 31.5 46.035156 C 34.199219 44.398438 35.765625 44 39.066406 44.101562 C 41.699219 44.199219 42.199219 44.332031 44.898438 45.667969 Z M 58 49.832031 C 61.132812 53.035156 62.535156 53.800781 64.667969 53.535156 C 66.632812 53.265625 67.367188 53.867188 66.667969 55.167969 C 65.964844 56.464844 61.800781 60.332031 61.101562 60.332031 C 60.035156 60.332031 59.734375 59.734375 60.066406 58.332031 C 60.601562 56.332031 59.734375 55.035156 54.035156 49.199219 L 48.832031 43.933594 L 52.167969 45.601562 C 54.898438 46.964844 55.964844 47.734375 58 49.832031 Z M 84 45.832031 C 84 46.234375 84.464844 47.433594 85 48.464844 C 85.566406 49.5 86.035156 50.433594 86.101562 50.566406 C 86.132812 50.699219 86.765625 51.367188 87.535156 52.066406 C 90.667969 54.933594 91.699219 59.132812 90.066406 62.234375 C 89.667969 63.035156 89.199219 63.667969 89.035156 63.667969 C 88.5 63.667969 88 62.765625 88.199219 62.199219 C 88.535156 61.332031 78.667969 51.5 77.699219 51.765625 C 77.300781 51.867188 76.832031 51.734375 76.601562 51.433594 C 76.265625 51 76.332031 50.800781 76.964844 50.300781 C 78 49.433594 80.234375 48.898438 81.800781 49.101562 L 83.101562 49.265625 L 81.867188 48.035156 L 80.667969 46.800781 L 81.898438 45.601562 C 83.234375 44.265625 84 44.367188 84 45.832031 Z M 29.300781 49.464844 C 29.867188 50.066406 30.035156 50.535156 29.867188 51.167969 C 29.734375 51.667969 29.867188 52.367188 30.132812 52.933594 C 30.398438 53.433594 34.265625 57.464844 38.734375 61.898438 L 46.867188 70 L 48.367188 70 C 49.535156 70 50.066406 70.199219 50.632812 70.800781 L 51.367188 71.601562 L 50.433594 72.265625 C 47.199219 74.535156 43.734375 75.300781 40.066406 74.535156 C 36.566406 73.800781 33.933594 72.265625 30.800781 69.167969 C 26.167969 64.535156 24.234375 59.332031 25.464844 54.464844 C 25.964844 52.398438 27.832031 48.667969 28.332031 48.667969 C 28.464844 48.667969 28.898438 49.035156 29.300781 49.464844 Z M 76.199219 53.132812 C 75.933594 54.132812 85.433594 63.667969 86.699219 63.667969 C 87.800781 63.667969 88.535156 64.433594 87.933594 64.898438 C 85.199219 67.101562 80.667969 66.734375 77.535156 64.132812 L 76.5 63.234375 L 76.300781 64.535156 C 76.101562 66.101562 75.332031 67.566406 74.234375 68.601562 C 73.535156 69.265625 73.367188 69.300781 73.035156 68.867188 C 72.800781 68.566406 72.667969 68.167969 72.765625 67.933594 C 73 67.199219 72.167969 65.898438 70.199219 64.035156 C 68.699219 62.632812 68.132812 62.300781 67.535156 62.464844 C 66.667969 62.667969 65.800781 61.933594 66.167969 61.300781 C 66.300781 61.101562 67.101562 60.5 67.933594 59.964844 C 69.667969 58.867188 72.066406 58.667969 73.199219 59.5 C 74.199219 60.265625 74.265625 60.101562 73.734375 58.464844 C 73.132812 56.667969 73.535156 54.234375 74.699219 52.632812 C 75.265625 51.800781 75.5 51.699219 75.898438 52.035156 C 76.167969 52.265625 76.300781 52.734375 76.199219 53.132812 Z M 20.332031 59.5 C 20.632812 59.867188 20.632812 60.234375 20.367188 61.035156 C 20.132812 61.667969 20.132812 62.265625 20.300781 62.601562 C 20.464844 62.933594 24.433594 66.964844 29.132812 71.632812 C 35.964844 78.433594 37.734375 80.035156 38.234375 79.832031 C 40.035156 79.066406 41.265625 79.601562 40.867188 80.933594 C 40.566406 81.800781 31.535156 90.667969 30.933594 90.667969 C 29.964844 90.667969 29.5 89.734375 29.933594 88.601562 C 30.167969 87.964844 30.199219 87.367188 30 87.035156 C 29.832031 86.734375 28.066406 84.867188 26.035156 82.832031 L 22.332031 79.199219 L 19.667969 81.800781 L 17.867188 80 L 19.167969 78.667969 L 20.464844 77.332031 L 17 73.800781 C 15.066406 71.867188 13.265625 70.167969 12.933594 70 C 12.601562 69.800781 12 69.800781 11.332031 70.035156 C 10.464844 70.332031 10.167969 70.332031 9.765625 69.898438 C 9.464844 69.632812 9.367188 69.132812 9.464844 68.765625 C 9.765625 67.867188 18.765625 59 19.398438 59 C 19.699219 59 20.101562 59.234375 20.332031 59.5 Z M 70.933594 68.101562 C 75.535156 72.699219 76.5 73.535156 77.199219 73.398438 C 78.667969 73.132812 78.101562 74.398438 75.601562 76.898438 C 73 79.535156 72 79.933594 72 78.398438 C 72 77.667969 71.066406 76.566406 67.199219 72.699219 C 62.898438 68.398438 62.300781 67.933594 61.535156 68.132812 C 60.898438 68.300781 60.601562 68.199219 60.433594 67.800781 C 60.300781 67.433594 60.933594 66.566406 62.535156 64.964844 C 63.800781 63.699219 64.964844 62.667969 65.167969 62.667969 C 65.367188 62.667969 67.964844 65.132812 70.933594 68.101562 Z M 63 71.898438 C 63 72.566406 62.5 72.667969 60.964844 72.199219 C 59.699219 71.800781 59.265625 71.800781 58.035156 72.234375 C 56.898438 72.601562 56.535156 72.632812 56.132812 72.300781 C 55.699219 71.933594 55.898438 71.601562 57.566406 69.933594 L 59.464844 68 L 61.234375 69.734375 C 62.199219 70.699219 63 71.667969 63 71.898438 Z M 61.332031 78.832031 L 67.5 85 L 65.101562 87.367188 C 63.398438 89.101562 62.566406 89.699219 62.167969 89.535156 C 61.765625 89.398438 61.667969 89.101562 61.800781 88.566406 C 61.933594 87.933594 61.199219 87 57.035156 82.867188 C 52.898438 78.734375 51.964844 77.964844 51.367188 78.167969 C 50.867188 78.300781 50.601562 78.199219 50.464844 77.832031 C 50.300781 77.433594 50.898438 76.601562 52.535156 74.964844 C 53.800781 73.699219 54.898438 72.667969 55 72.667969 C 55.101562 72.667969 57.933594 75.433594 61.332031 78.832031 Z M 64 75.832031 C 65.867188 77.699219 66.367188 78.433594 66.101562 78.699219 C 65.800781 79 65.398438 78.964844 64.433594 78.601562 C 63.734375 78.300781 62.964844 78.167969 62.734375 78.234375 C 62.035156 78.5 61.332031 77.667969 61.332031 76.601562 C 61.332031 76.066406 61.167969 75.332031 60.964844 74.964844 C 60.601562 74.265625 60.765625 73.332031 61.234375 73.332031 C 61.398438 73.332031 62.632812 74.464844 64 75.832031 Z M 70.101562 78.601562 L 72 80.535156 L 70.066406 82.433594 C 68.332031 84.132812 68.066406 84.300781 67.667969 83.832031 C 67.332031 83.433594 67.332031 83.132812 67.632812 82.464844 C 68.101562 81.433594 68.101562 79.167969 67.632812 78.300781 C 67.265625 77.601562 67.433594 76.667969 67.898438 76.667969 C 68.066406 76.667969 69.035156 77.535156 70.101562 78.601562 Z M 52.933594 81.832031 C 56.535156 83.5 59 87.035156 59 90.5 C 59 92.265625 57.5 95.398438 56.699219 95.265625 C 56.398438 95.199219 56.167969 94.800781 56.132812 94.332031 C 56.101562 93.867188 56.066406 93.300781 56.035156 93.035156 C 56 92.398438 48.398438 84.734375 47.265625 84.132812 C 46.765625 83.867188 46.132812 83.765625 45.867188 83.867188 C 45.566406 84 45.101562 83.898438 44.832031 83.667969 C 44.167969 83.101562 44.699219 82.433594 46.5 81.632812 C 48.398438 80.765625 50.800781 80.832031 52.933594 81.832031 Z M 96.832031 93.167969 C 97.898438 94.199219 97.898438 95.667969 96.867188 96.867188 C 95.765625 98.167969 93.898438 98.167969 92.800781 96.867188 C 91.167969 95 92.367188 92.332031 94.832031 92.332031 C 95.667969 92.332031 96.300781 92.601562 96.832031 93.167969 Z M 96.832031 93.167969 "/>
<path style=" stroke:none;fill-rule:nonzero;fill:rgb(0%,0%,0%);fill-opacity:1;" d="M 93.332031 93.332031 C 91.964844 94.699219 92.933594 97.332031 94.832031 97.332031 C 96.765625 97.332031 97.734375 94.699219 96.265625 93.332031 C 95.332031 92.5 94.199219 92.464844 93.332031 93.332031 Z M 95.898438 93.867188 C 96 94.167969 95.933594 94.699219 95.734375 95.035156 C 95.5 95.398438 95.464844 95.699219 95.667969 95.832031 C 95.867188 95.933594 96 96.234375 96 96.433594 C 95.964844 96.667969 95.699219 96.5 95.367188 96.066406 C 94.566406 95.167969 94.332031 95.132812 94.332031 96 C 94.332031 96.367188 94.199219 96.667969 94 96.667969 C 93.832031 96.667969 93.667969 95.898438 93.667969 95 C 93.667969 93.367188 93.699219 93.332031 94.667969 93.332031 C 95.300781 93.332031 95.765625 93.535156 95.898438 93.867188 Z M 95.898438 93.867188 "/>
<path style=" stroke:none;fill-rule:nonzero;fill:rgb(0%,0%,0%);fill-opacity:1;" d="M 94.332031 94.332031 C 94.332031 94.5 94.632812 94.667969 95 94.667969 C 95.367188 94.667969 95.667969 94.5 95.667969 94.332031 C 95.667969 94.132812 95.367188 94 95 94 C 94.632812 94 94.332031 94.132812 94.332031 94.332031 Z M 94.332031 94.332031 "/>
<path style=" stroke:none;fill-rule:nonzero;fill:rgb(0%,0%,0%);fill-opacity:1;" d="M 0.234375 81.234375 C 0.101562 81.332031 0 85.632812 0 90.734375 L 0 100 L 9.433594 99.933594 L 18.832031 99.832031 L 18.933594 99.035156 C 19.035156 98.367188 17.566406 96.734375 10.433594 89.601562 C 2.265625 81.433594 1.035156 80.398438 0.234375 81.234375 Z M 0.234375 81.234375 "/>
</g>
</svg>
