<?xml version="1.0" encoding="UTF-8"?>
<svg xmlns="http://www.w3.org/2000/svg" xmlns:xlink="http://www.w3.org/1999/xlink" width="166px" height="166px" viewBox="0 0 166 166" version="1.1">
<g id="surface1">
<rect x="0" y="0" width="166" height="166" style="fill:rgb(100%,100%,100%);fill-opacity:1;stroke:none;"/>
<path style=" stroke:none;fill-rule:evenodd;fill:rgb(0%,0%,0%);fill-opacity:1;" d="M 7.324219 7.324219 L 158.675781 7.324219 L 158.675781 158.675781 L 7.324219 158.675781 Z M 7.324219 7.324219 "/>
<path style=" stroke:none;fill-rule:evenodd;fill:rgb(100%,100%,100%);fill-opacity:1;" d="M 40.898438 127.132812 L 36.972656 131.0625 L 34.386719 128.472656 L 38.308594 124.546875 L 28.160156 114.402344 C 26.511719 112.75 26.289062 112.441406 24.234375 113.507812 C 23.480469 113.910156 22.667969 113.902344 22.050781 113.277344 C 20.753906 111.984375 22.136719 110.429688 22.316406 110.246094 L 34.933594 97.628906 C 35.113281 97.453125 36.667969 96.070312 37.964844 97.359375 C 38.589844 97.988281 38.597656 98.792969 38.195312 99.546875 C 37.121094 101.601562 37.4375 101.824219 39.085938 103.472656 L 62.5 126.890625 C 64.152344 128.546875 64.375 128.863281 66.429688 127.785156 C 67.191406 127.386719 67.992188 127.390625 68.617188 128.015625 C 69.910156 129.3125 68.535156 130.871094 68.355469 131.054688 L 55.738281 143.667969 C 55.554688 143.84375 53.996094 145.222656 52.699219 143.933594 C 52.078125 143.304688 52.078125 142.503906 52.472656 141.746094 C 53.546875 139.695312 53.234375 139.46875 51.582031 137.816406 Z M 40.726562 158.675781 L 35.582031 158.675781 L 35.621094 158.597656 C 36.6875 156.550781 36.375 156.324219 34.726562 154.671875 L 11.308594 131.257812 C 9.652344 129.601562 9.433594 129.289062 7.378906 130.355469 C 7.363281 130.367188 7.34375 130.375 7.324219 130.386719 L 7.324219 125.234375 L 18.078125 114.480469 C 18.257812 114.308594 19.816406 112.921875 21.109375 114.210938 C 21.734375 114.839844 21.742188 115.640625 21.339844 116.398438 C 20.265625 118.457031 20.578125 118.675781 22.234375 120.335938 L 45.648438 143.746094 C 47.304688 145.402344 47.523438 145.714844 49.578125 144.644531 C 50.335938 144.242188 51.140625 144.242188 51.765625 144.871094 C 53.058594 146.167969 51.675781 147.726562 51.5 147.902344 Z M 105.015625 27.546875 L 116.78125 15.777344 L 150.210938 49.191406 L 138.4375 60.96875 C 138.257812 61.144531 136.695312 62.527344 135.402344 61.234375 C 134.777344 60.605469 134.777344 59.800781 135.179688 59.046875 C 136.246094 56.992188 135.9375 56.769531 134.28125 55.113281 L 110.859375 31.699219 C 109.210938 30.050781 108.988281 29.734375 106.933594 30.804688 C 106.175781 31.207031 105.371094 31.207031 104.75 30.582031 C 103.453125 29.289062 104.839844 27.722656 105.015625 27.546875 Z M 125.234375 7.324219 L 132.238281 7.324219 L 137.804688 12.894531 C 138.03125 13.117188 138.835938 14.015625 137.496094 15.347656 C 136.738281 16.109375 136.066406 15.882812 135.175781 15.441406 C 130.398438 12.972656 125.933594 13.0625 121.382812 16.359375 L 118.789062 13.773438 Z M 158.675781 33.144531 L 158.675781 40.730469 L 152.214844 47.1875 L 149.628906 44.597656 C 152.792969 40.539062 153.09375 35.316406 150.726562 30.542969 C 150.367188 29.558594 149.917969 28.574219 150.722656 27.773438 C 152.148438 26.347656 153.355469 27.824219 153.53125 28.003906 Z M 133.71875 28.691406 C 135.101562 26.328125 134.203125 23.738281 132.902344 21.636719 C 132.375 20.660156 131.925781 19.671875 132.859375 18.734375 C 134.238281 17.359375 135.632812 19.1875 135.992188 19.542969 L 145.636719 29.195312 C 145.992188 29.550781 147.824219 30.941406 146.445312 32.320312 C 145.507812 33.261719 144.527344 32.804688 143.539062 32.269531 C 141.4375 30.976562 138.851562 30.085938 136.488281 31.460938 Z M 92.238281 153.15625 L 86.71875 158.675781 L 83.78125 158.675781 C 83.859375 158.5 83.953125 158.320312 84.042969 158.128906 C 84.375 157.507812 83.648438 156.875 83.269531 156.496094 L 70.105469 143.332031 C 69.726562 142.957031 69.101562 142.226562 68.472656 142.554688 C 67.796875 142.882812 67.242188 143.285156 66.613281 142.660156 C 65.960938 142.003906 66.515625 141.296875 67.015625 140.800781 L 73.449219 134.371094 Z M 134.335938 73.476562 L 140.496094 67.320312 L 156.472656 83.296875 C 157.398438 84.226562 157.53125 84.402344 158.675781 83.804688 L 158.675781 86.722656 L 152.652344 92.742188 C 152.550781 92.84375 151.675781 93.625 150.945312 92.890625 C 150.59375 92.542969 150.59375 92.089844 150.820312 91.664062 C 151.425781 90.507812 151.246094 90.382812 150.320312 89.453125 Z M 151.097656 68.421875 C 151.199219 68.527344 151.75 69.226562 150.996094 69.980469 C 150.292969 70.683594 149.511719 70.160156 148.886719 69.675781 C 147.328125 68.574219 145.316406 67.269531 143.085938 67.648438 L 141.625 66.191406 L 145.242188 62.570312 Z M 129.59375 78.222656 L 133.210938 74.605469 L 134.667969 76.0625 C 134.289062 78.300781 135.597656 80.308594 136.703125 81.863281 C 137.179688 82.492188 137.703125 83.273438 137 83.972656 C 136.25 84.726562 135.546875 84.179688 135.441406 84.074219 Z M 146.671875 151.277344 C 146.671875 148.832031 148.652344 147.035156 150.996094 147.035156 C 153.3125 147.035156 155.292969 148.832031 155.292969 151.277344 C 155.292969 153.742188 153.3125 155.542969 150.996094 155.542969 C 148.65625 155.542969 146.671875 153.742188 146.671875 151.277344 Z M 150.996094 154.832031 C 152.921875 154.832031 154.4375 153.324219 154.4375 151.277344 C 154.4375 149.261719 152.921875 147.742188 150.996094 147.742188 C 149.046875 147.742188 147.527344 149.261719 147.53125 151.277344 C 147.53125 153.324219 149.046875 154.832031 150.996094 154.832031 Z M 150.09375 153.742188 L 149.351562 153.742188 L 149.351562 148.832031 L 151.21875 148.832031 C 152.382812 148.832031 152.953125 149.261719 152.953125 150.230469 C 152.953125 151.105469 152.402344 151.492188 151.683594 151.578125 L 153.078125 153.742188 L 152.246094 153.742188 L 150.949219 151.613281 L 150.09375 151.613281 Z M 150.984375 150.984375 C 151.613281 150.984375 152.175781 150.9375 152.175781 150.183594 C 152.175781 149.578125 151.625 149.464844 151.105469 149.464844 L 150.09375 149.464844 L 150.09375 150.984375 Z M 52.90625 83.5 C 51.566406 86.351562 52.730469 87.871094 53.851562 88.984375 L 76.996094 112.128906 C 78.113281 113.25 79.632812 114.410156 82.484375 113.074219 L 85.078125 115.667969 C 74.773438 124.269531 62.722656 121.046875 53.828125 112.15625 C 44.941406 103.261719 41.710938 91.207031 50.316406 80.90625 Z M 84.496094 111.074219 C 85.828125 108.21875 84.667969 106.695312 83.546875 105.578125 L 60.40625 82.429688 C 59.285156 81.316406 57.765625 80.15625 54.914062 81.492188 L 52.324219 78.902344 C 62.621094 70.300781 74.679688 73.523438 83.570312 82.414062 C 92.457031 91.308594 95.6875 103.359375 87.082031 113.660156 Z M 133.761719 62.875 C 133.132812 62.253906 132.335938 62.246094 131.570312 62.652344 C 129.519531 63.71875 129.300781 63.410156 127.644531 61.753906 L 104.226562 38.34375 C 102.570312 36.6875 102.257812 36.46875 103.335938 34.410156 C 103.726562 33.65625 103.726562 32.847656 103.105469 32.222656 C 101.808594 30.929688 100.25 32.3125 100.074219 32.488281 L 88.300781 44.257812 L 97.914062 62.078125 L 97.820312 62.164062 L 79.34375 53.222656 L 68.023438 64.542969 C 67.488281 65.074219 66.144531 66.410156 67.527344 67.796875 C 68.597656 68.875 69.894531 67.757812 70.472656 67.265625 C 71.277344 66.554688 71.996094 66.910156 73.0625 67.179688 C 74 67.40625 74.894531 67.851562 75.789062 68.304688 L 112.757812 86.636719 L 114.050781 85.347656 L 95.964844 51.925781 L 116.71875 72.675781 C 118.371094 74.332031 118.683594 74.558594 117.613281 76.605469 C 117.207031 77.367188 117.214844 78.167969 117.84375 78.792969 C 119.136719 80.085938 120.695312 78.707031 120.875 78.527344 L 133.5 65.910156 C 133.679688 65.730469 135.054688 64.167969 133.761719 62.875 Z M 98.835938 86.445312 L 91.152344 78.761719 L 81.285156 73.882812 L 81.195312 73.976562 L 96.25 89.035156 C 101.121094 95.332031 96.527344 96.445312 98.453125 98.367188 C 99.835938 99.746094 101.574219 97.832031 102.058594 97.335938 L 107.144531 92.257812 C 107.632812 91.769531 109.546875 90.035156 108.160156 88.648438 C 106.242188 86.726562 105.132812 91.320312 98.835938 86.445312 Z M 74.574219 133.234375 C 78.796875 128.914062 85.324219 128.3125 92.109375 134.496094 C 98.289062 140.121094 97.539062 147.855469 93.367188 152.027344 L 91.914062 150.570312 C 93.246094 148.832031 91.886719 147.324219 90.929688 146.375 L 80.230469 135.671875 C 79.273438 134.71875 77.765625 133.363281 76.035156 134.691406 Z M 83.945312 123.867188 L 90.574219 117.238281 L 109.367188 136.03125 L 102.734375 142.660156 C 102.636719 142.757812 101.753906 143.539062 101.027344 142.8125 C 100.675781 142.460938 100.671875 142.007812 100.898438 141.578125 C 101.503906 140.425781 101.328125 140.300781 100.402344 139.367188 L 87.238281 126.207031 C 86.308594 125.277344 86.179688 125.101562 85.027344 125.699219 C 84.597656 125.933594 84.144531 125.929688 83.792969 125.578125 C 83.0625 124.851562 83.84375 123.96875 83.945312 123.867188 Z M 91.703125 116.105469 L 97.304688 110.507812 L 102.40625 115.601562 C 102.53125 115.730469 102.988281 116.230469 102.234375 116.988281 C 101.800781 117.414062 101.433594 117.289062 100.925781 117.035156 C 98.234375 115.65625 95.726562 115.707031 93.160156 117.5625 Z M 109.039062 133.441406 C 110.820312 131.15625 111 128.214844 109.667969 125.523438 C 109.46875 124.972656 109.210938 124.421875 109.664062 123.96875 C 110.472656 123.164062 111.148438 123.992188 111.25 124.09375 L 116.277344 129.121094 L 110.5 134.898438 Z M 100.09375 124.496094 C 100.875 123.167969 100.371094 121.710938 99.644531 120.53125 C 99.339844 119.976562 99.089844 119.421875 99.617188 118.894531 C 100.398438 118.117188 101.179688 119.148438 101.378906 119.347656 L 106.808594 124.777344 C 107.003906 124.972656 108.035156 125.753906 107.253906 126.535156 C 106.730469 127.0625 106.175781 126.8125 105.621094 126.507812 C 104.441406 125.78125 102.988281 125.277344 101.65625 126.058594 Z M 107 100.8125 C 109.390625 98.421875 111.046875 97.265625 112.910156 96.765625 C 115.875 96.011719 118.261719 96.941406 120.375 99.046875 C 122.480469 101.15625 123.410156 103.546875 122.65625 106.511719 C 122.152344 108.371094 121 110.03125 118.609375 112.417969 L 117.152344 110.964844 C 118.359375 109.199219 117.40625 108.09375 116.175781 106.859375 L 112.382812 103.066406 C 111.253906 101.941406 109.992188 101.136719 108.460938 102.265625 Z M 102.527344 110.914062 C 101.601562 109.984375 101.472656 109.808594 100.316406 110.410156 C 99.890625 110.636719 99.4375 110.632812 99.089844 110.28125 C 98.359375 109.554688 99.140625 108.671875 99.238281 108.574219 L 105.871094 101.945312 L 121.851562 117.925781 C 122.777344 118.847656 122.902344 119.03125 124.058594 118.421875 C 124.488281 118.199219 124.941406 118.195312 125.292969 118.546875 C 126.023438 119.277344 125.242188 120.15625 125.140625 120.253906 L 118.03125 127.363281 C 117.933594 127.46875 117.25 128.050781 116.523438 127.324219 C 116.167969 126.96875 116.109375 126.574219 116.335938 126.148438 C 116.9375 124.996094 116.621094 125.003906 115.695312 124.074219 Z M 102.527344 110.914062 "/>
<path style=" stroke:none;fill-rule:evenodd;fill:rgb(100%,100%,100%);fill-opacity:1;" d="M 122.925781 87.050781 C 122.171875 88.660156 122.824219 89.511719 123.449219 90.136719 L 136.464844 103.148438 C 137.09375 103.777344 137.949219 104.433594 139.554688 103.675781 L 141.011719 105.132812 C 135.210938 109.984375 128.425781 108.179688 123.429688 103.175781 C 118.425781 98.175781 116.621094 91.394531 121.464844 85.589844 Z M 140.683594 102.546875 C 141.4375 100.941406 140.785156 100.089844 140.15625 99.460938 L 127.144531 86.449219 C 126.515625 85.816406 125.664062 85.164062 124.054688 85.917969 L 122.601562 84.460938 C 128.40625 79.609375 135.1875 81.421875 140.183594 86.421875 C 145.183594 91.421875 146.996094 98.199219 142.144531 104.007812 Z M 25.460938 64.632812 L 31.246094 58.847656 L 46.261719 73.867188 C 47.136719 74.742188 47.253906 74.90625 48.339844 74.339844 C 48.742188 74.125 49.167969 74.125 49.496094 74.457031 C 50.183594 75.140625 49.449219 75.96875 49.355469 76.0625 L 42.671875 82.746094 C 42.578125 82.839844 41.753906 83.570312 41.070312 82.882812 C 40.738281 82.554688 40.738281 82.128906 40.949219 81.730469 C 41.515625 80.644531 41.351562 80.523438 40.476562 79.652344 Z M 41.210938 59.886719 C 41.304688 59.980469 41.824219 60.640625 41.117188 61.351562 C 40.453125 62.011719 39.722656 61.515625 39.132812 61.066406 C 37.667969 60.027344 35.777344 58.800781 33.679688 59.15625 L 32.308594 57.785156 L 35.710938 54.386719 Z M 20.996094 69.097656 L 24.398438 65.695312 L 25.769531 67.066406 C 25.414062 69.167969 26.640625 71.054688 27.679688 72.519531 C 28.128906 73.109375 28.625 73.84375 27.964844 74.503906 C 27.257812 75.210938 26.59375 74.691406 26.5 74.59375 Z M 58.542969 61.589844 C 59.414062 62.460938 59.53125 62.625 60.617188 62.058594 C 61.019531 61.847656 61.445312 61.847656 61.777344 62.175781 C 62.460938 62.863281 61.726562 63.691406 61.632812 63.785156 L 54.953125 70.464844 C 54.855469 70.558594 54.03125 71.292969 53.34375 70.609375 C 53.015625 70.277344 53.015625 69.851562 53.230469 69.449219 C 53.796875 68.367188 53.628906 68.246094 52.753906 67.371094 L 40.382812 55 C 39.511719 54.125 39.390625 53.960938 38.304688 54.527344 C 37.902344 54.742188 37.480469 54.742188 37.148438 54.410156 C 36.464844 53.726562 37.195312 52.898438 37.289062 52.804688 L 43.972656 46.121094 C 44.066406 46.027344 44.894531 45.292969 45.578125 45.980469 C 45.910156 46.3125 45.910156 46.734375 45.695312 47.136719 C 45.128906 48.222656 45.292969 48.339844 46.167969 49.214844 Z M 56.039062 52.804688 L 53.960938 54.882812 L 52.589844 53.511719 L 54.667969 51.433594 L 49.308594 46.074219 C 48.433594 45.199219 48.316406 45.035156 47.230469 45.601562 C 46.828125 45.8125 46.40625 45.8125 46.074219 45.484375 C 45.390625 44.796875 46.121094 43.972656 46.214844 43.875 L 52.898438 37.195312 C 52.992188 37.101562 53.820312 36.367188 54.503906 37.054688 C 54.832031 37.382812 54.832031 37.808594 54.621094 38.210938 C 54.054688 39.296875 54.222656 39.414062 55.09375 40.289062 L 67.464844 52.660156 C 68.339844 53.535156 68.457031 53.699219 69.542969 53.132812 C 69.945312 52.921875 70.371094 52.921875 70.703125 53.25 C 71.386719 53.9375 70.652344 54.761719 70.558594 54.855469 L 63.878906 61.539062 C 63.785156 61.632812 62.957031 62.363281 62.269531 61.679688 C 61.941406 61.351562 61.941406 60.925781 62.152344 60.523438 C 62.71875 59.4375 62.554688 59.320312 61.683594 58.445312 Z M 55.125 34.96875 L 61.355469 28.738281 L 79.019531 46.398438 L 72.785156 52.632812 C 72.691406 52.726562 71.867188 53.457031 71.179688 52.773438 C 70.847656 52.445312 70.847656 52.019531 71.0625 51.617188 C 71.628906 50.53125 71.464844 50.414062 70.589844 49.539062 L 58.214844 37.164062 C 57.34375 36.292969 57.222656 36.125 56.136719 36.695312 C 55.738281 36.90625 55.3125 36.90625 54.980469 36.578125 C 54.296875 35.890625 55.027344 35.066406 55.125 34.96875 Z M 62.421875 27.675781 L 67.683594 22.410156 L 72.476562 27.203125 C 72.597656 27.320312 73.019531 27.792969 72.3125 28.5 C 71.910156 28.902344 71.558594 28.78125 71.085938 28.546875 C 68.558594 27.25 66.199219 27.292969 63.789062 29.042969 Z M 78.710938 43.96875 C 80.390625 41.820312 80.554688 39.054688 79.304688 36.527344 C 79.113281 36.007812 78.875 35.488281 79.304688 35.066406 C 80.058594 34.308594 80.695312 35.089844 80.789062 35.183594 L 85.511719 39.90625 L 80.082031 45.335938 Z M 70.308594 35.558594 C 71.039062 34.308594 70.566406 32.941406 69.882812 31.828125 C 69.597656 31.308594 69.363281 30.792969 69.855469 30.296875 C 70.589844 29.5625 71.320312 30.53125 71.511719 30.71875 L 76.609375 35.820312 C 76.800781 36.007812 77.765625 36.742188 77.035156 37.472656 C 76.539062 37.96875 76.019531 37.730469 75.5 37.449219 C 74.390625 36.765625 73.019531 36.292969 71.769531 37.023438 Z M 70.308594 35.558594 "/>
</g>
</svg>
