<?xml version="1.0" encoding="UTF-8"?>
<svg xmlns="http://www.w3.org/2000/svg" xmlns:xlink="http://www.w3.org/1999/xlink" width="150px" height="94px" viewBox="0 0 149 94" version="1.1">
<g id="surface1">
<path style=" stroke:none;fill-rule:nonzero;fill:rgb(0%,0%,0%);fill-opacity:1;" d="M 42.992188 16.296875 L 30.917969 28.390625 L 30.917969 65.753906 L 43.015625 77.875 L 55.089844 89.96875 L 92.390625 89.96875 L 104.488281 77.851562 L 116.558594 65.753906 L 116.535156 46.949219 L 116.535156 28.144531 L 104.707031 16.148438 L 92.878906 4.179688 L 55.089844 4.179688 Z M 99.359375 21.558594 L 109.199219 31.585938 L 109.199219 62.3125 L 99.089844 72.441406 L 88.953125 82.59375 L 58.523438 82.59375 L 48.414062 72.464844 L 38.28125 62.3125 L 38.28125 31.808594 L 48.441406 21.679688 L 58.574219 11.554688 L 89.519531 11.554688 Z M 99.359375 21.558594 "/>
<path style=" stroke:none;fill-rule:nonzero;fill:rgb(0%,0%,0%);fill-opacity:1;" d="M 59.480469 26.820312 L 55.605469 37.191406 L 53.003906 31.957031 L 50.402344 26.746094 L 42.699219 33.972656 L 42.699219 59.832031 L 46.378906 63.519531 L 50.058594 67.230469 L 50.058594 54.816406 C 50.058594 47.492188 50.15625 42.527344 50.28125 42.648438 C 50.402344 42.796875 51.851562 45.917969 53.519531 49.605469 C 55.285156 53.5625 56.585938 56.195312 56.710938 56.019531 C 56.808594 55.875 58.402344 51.71875 60.265625 46.804688 L 63.679688 37.855469 L 63.753906 57.644531 L 63.800781 77.433594 L 72.144531 77.433594 L 72.144531 16.46875 L 63.382812 16.46875 Z M 59.480469 26.820312 "/>
<path style=" stroke:none;fill-rule:nonzero;fill:rgb(0%,0%,0%);fill-opacity:1;" d="M 77.789062 46.949219 L 77.789062 77.433594 L 87.234375 77.433594 L 96.019531 68.632812 L 104.78125 59.855469 L 104.78125 46.949219 L 91.285156 46.949219 L 91.285156 54.300781 L 94.304688 54.375 L 97.296875 54.449219 L 97.371094 55.210938 C 97.417969 55.800781 97.199219 56.265625 96.339844 57.324219 C 95.136719 58.824219 86.402344 67.355469 86.082031 67.355469 C 85.984375 67.355469 85.886719 58.109375 85.886719 46.804688 C 85.886719 35.496094 85.984375 26.300781 86.082031 26.351562 C 86.179688 26.375 88.78125 29.03125 91.824219 32.203125 L 97.394531 37.980469 L 97.417969 39.503906 L 97.417969 41.050781 L 104.78125 41.050781 L 104.78125 34.121094 L 96.144531 25.292969 L 87.480469 16.46875 L 77.789062 16.46875 Z M 77.789062 46.949219 "/>
</g>
</svg>
