<?xml version="1.0" encoding="UTF-8"?>
<svg xmlns="http://www.w3.org/2000/svg" xmlns:xlink="http://www.w3.org/1999/xlink" width="150px" height="106px" viewBox="0 0 149 106" version="1.1">
<g id="surface1">
<path style=" stroke:none;fill-rule:nonzero;fill:rgb(0%,0%,0%);fill-opacity:1;" d="M 84.730469 13.59375 C 85.027344 13.722656 85.410156 13.679688 85.539062 13.550781 C 85.710938 13.421875 85.453125 13.292969 84.984375 13.335938 C 84.515625 13.335938 84.386719 13.464844 84.730469 13.59375 Z M 84.730469 13.59375 "/>
<path style=" stroke:none;fill-rule:nonzero;fill:rgb(0%,0%,0%);fill-opacity:1;" d="M 78.550781 14.023438 C 79.402344 14.109375 80.851562 14.109375 81.746094 14.023438 C 82.597656 13.9375 81.875 13.851562 80.125 13.851562 C 78.378906 13.851562 77.652344 13.9375 78.550781 14.023438 Z M 78.550781 14.023438 "/>
<path style=" stroke:none;fill-rule:nonzero;fill:rgb(0%,0%,0%);fill-opacity:1;" d="M 70.664062 14.878906 C 70.960938 15.007812 71.347656 14.964844 71.472656 14.835938 C 71.644531 14.707031 71.390625 14.578125 70.917969 14.621094 C 70.449219 14.621094 70.324219 14.75 70.664062 14.878906 Z M 70.664062 14.878906 "/>
<path style=" stroke:none;fill-rule:nonzero;fill:rgb(0%,0%,0%);fill-opacity:1;" d="M 65.207031 16.292969 C 64.441406 16.808594 65.125 16.808594 66.273438 16.292969 C 66.828125 16.039062 66.914062 15.910156 66.488281 15.910156 C 66.144531 15.910156 65.550781 16.082031 65.207031 16.292969 Z M 65.207031 16.292969 "/>
<path style=" stroke:none;fill-rule:nonzero;fill:rgb(0%,0%,0%);fill-opacity:1;" d="M 97.386719 19.296875 C 97.8125 19.769531 98.238281 20.152344 98.367188 20.152344 C 98.496094 20.152344 98.238281 19.769531 97.8125 19.296875 C 97.386719 18.824219 96.960938 18.4375 96.832031 18.4375 C 96.707031 18.4375 96.960938 18.824219 97.386719 19.296875 Z M 97.386719 19.296875 "/>
<path style=" stroke:none;fill-rule:nonzero;fill:rgb(0%,0%,0%);fill-opacity:1;" d="M 96.746094 20.324219 C 96.746094 20.410156 97.089844 20.753906 97.515625 21.054688 C 98.152344 21.613281 98.195312 21.570312 97.644531 20.882812 C 97.089844 20.195312 96.746094 19.980469 96.746094 20.324219 Z M 96.746094 20.324219 "/>
<path style=" stroke:none;fill-rule:nonzero;fill:rgb(0%,0%,0%);fill-opacity:1;" d="M 100.710938 27.871094 C 100.710938 28.945312 100.796875 29.371094 100.882812 28.816406 C 100.96875 28.300781 100.96875 27.445312 100.882812 26.886719 C 100.796875 26.371094 100.710938 26.800781 100.710938 27.871094 Z M 100.710938 27.871094 "/>
<path style=" stroke:none;fill-rule:nonzero;fill:rgb(0%,0%,0%);fill-opacity:1;" d="M 70.109375 27.445312 C 64.613281 28.128906 53.234375 29.929688 53.019531 30.144531 C 52.976562 30.1875 57.027344 30.230469 62.011719 30.230469 C 67.554688 30.230469 71.304688 30.402344 71.558594 30.660156 C 71.859375 30.960938 68.960938 32.160156 62.78125 34.304688 C 57.75 36.0625 53.0625 37.863281 52.378906 38.25 C 51.015625 39.0625 50.761719 40.308594 51.785156 41.164062 C 52.464844 41.765625 53.273438 41.679688 60.734375 40.566406 C 75.054688 38.335938 99.644531 39.277344 112.089844 42.453125 C 113.839844 42.878906 115.332031 43.179688 115.414062 43.09375 C 115.714844 42.792969 107.191406 40.308594 102.074219 39.191406 C 96.234375 37.949219 87.925781 36.707031 81.445312 36.019531 C 78.976562 35.804688 76.929688 35.503906 76.800781 35.417969 C 76.714844 35.289062 79.230469 34.390625 82.425781 33.402344 C 88.566406 31.472656 89.929688 30.660156 89.929688 28.902344 C 89.929688 28.085938 89.585938 27.699219 88.4375 27.1875 C 86.433594 26.371094 78.25 26.457031 70.109375 27.445312 Z M 70.109375 27.445312 "/>
<path style=" stroke:none;fill-rule:nonzero;fill:rgb(0%,0%,0%);fill-opacity:1;" d="M 99.816406 27.871094 C 99.816406 28.6875 99.902344 29.03125 100.03125 28.601562 C 100.113281 28.214844 100.113281 27.527344 100.03125 27.101562 C 99.902344 26.714844 99.816406 27.058594 99.816406 27.871094 Z M 99.816406 27.871094 "/>
<path style=" stroke:none;fill-rule:nonzero;fill:rgb(0%,0%,0%);fill-opacity:1;" d="M 99.730469 30.402344 C 99.730469 30.660156 99.902344 30.960938 100.15625 31.089844 C 100.414062 31.21875 100.457031 31.046875 100.328125 30.703125 C 100.03125 29.929688 99.730469 29.800781 99.730469 30.402344 Z M 99.730469 30.402344 "/>
<path style=" stroke:none;fill-rule:nonzero;fill:rgb(0%,0%,0%);fill-opacity:1;" d="M 98.75 34.691406 C 98.582031 35.417969 98.621094 35.589844 98.964844 35.246094 C 99.175781 35.03125 99.304688 34.5625 99.21875 34.261719 C 99.09375 33.917969 98.921875 34.132812 98.75 34.691406 Z M 98.75 34.691406 "/>
<path style=" stroke:none;fill-rule:nonzero;fill:rgb(0%,0%,0%);fill-opacity:1;" d="M 44.878906 38.804688 C 44.878906 39.75 44.964844 40.09375 45.050781 39.535156 C 45.132812 39.019531 45.132812 38.25 45.050781 37.820312 C 44.921875 37.433594 44.835938 37.863281 44.878906 38.804688 Z M 44.878906 38.804688 "/>
<path style=" stroke:none;fill-rule:nonzero;fill:rgb(0%,0%,0%);fill-opacity:1;" d="M 44.027344 40.09375 C 44.027344 41.25 44.113281 41.722656 44.195312 41.035156 C 44.28125 40.394531 44.28125 39.449219 44.195312 38.890625 C 44.113281 38.378906 44.027344 38.890625 44.027344 40.09375 Z M 44.027344 40.09375 "/>
<path style=" stroke:none;fill-rule:nonzero;fill:rgb(0%,0%,0%);fill-opacity:1;" d="M 46.457031 47.769531 C 46.457031 47.855469 46.796875 48.199219 47.222656 48.496094 C 47.863281 49.054688 47.90625 49.011719 47.351562 48.324219 C 46.796875 47.640625 46.457031 47.425781 46.457031 47.769531 Z M 46.457031 47.769531 "/>
<path style=" stroke:none;fill-rule:nonzero;fill:rgb(0%,0%,0%);fill-opacity:1;" d="M 53.019531 64.363281 C 47.90625 65.863281 47.265625 74.054688 52.039062 76.585938 C 54 77.613281 57.621094 77.226562 59.070312 75.855469 C 62.523438 72.640625 61.882812 66.59375 57.878906 64.75 C 55.875 63.847656 55.023438 63.761719 53.019531 64.363281 Z M 56.257812 67.320312 C 57.238281 67.878906 58.007812 70.109375 57.707031 71.566406 C 57.109375 74.011719 54.851562 74.996094 53.191406 73.453125 C 52.292969 72.640625 52.125 69.164062 52.976562 68.09375 C 53.828125 66.980469 55.066406 66.679688 56.257812 67.320312 Z M 56.257812 67.320312 "/>
<path style=" stroke:none;fill-rule:nonzero;fill:rgb(0%,0%,0%);fill-opacity:1;" d="M 37.503906 65.820312 L 37.503906 67.320312 L 40.277344 67.320312 C 41.808594 67.320312 43.046875 67.492188 43.046875 67.707031 C 43.046875 67.921875 42.917969 68.179688 42.746094 68.265625 C 42.535156 68.308594 41.214844 69.679688 39.765625 71.265625 C 37.675781 73.496094 37.078125 74.398438 37.078125 75.425781 L 37.078125 76.753906 L 48.628906 76.753906 L 48.5 75.339844 L 48.375 73.96875 L 45.304688 73.753906 L 42.195312 73.539062 L 45.175781 70.238281 C 47.519531 67.664062 48.160156 66.679688 48.160156 65.648438 L 48.160156 64.320312 L 37.503906 64.320312 Z M 37.503906 65.820312 "/>
<path style=" stroke:none;fill-rule:nonzero;fill:rgb(0%,0%,0%);fill-opacity:1;" d="M 62.226562 70.539062 L 62.226562 76.753906 L 66.828125 76.753906 C 72.113281 76.753906 73.09375 76.328125 73.5625 73.925781 C 73.777344 72.726562 73.648438 72.125 72.878906 71.09375 C 72.199219 70.152344 72.070312 69.679688 72.410156 69.335938 C 72.921875 68.824219 73.050781 66.507812 72.539062 65.777344 C 71.859375 64.707031 70.152344 64.320312 66.316406 64.320312 L 62.226562 64.320312 Z M 69.726562 67.835938 C 70.152344 68.480469 68.703125 69.464844 67.253906 69.464844 C 66.273438 69.464844 66.0625 69.292969 66.0625 68.394531 C 66.0625 67.449219 66.230469 67.320312 67.722656 67.320312 C 68.660156 67.320312 69.554688 67.535156 69.726562 67.835938 Z M 70.066406 72.296875 C 70.492188 73.410156 69.511719 74.183594 67.722656 74.183594 C 66.144531 74.183594 66.0625 74.097656 66.0625 72.894531 C 66.0625 71.652344 66.144531 71.609375 67.9375 71.609375 C 69.257812 71.609375 69.898438 71.824219 70.066406 72.296875 Z M 70.066406 72.296875 "/>
<path style=" stroke:none;fill-rule:nonzero;fill:rgb(0%,0%,0%);fill-opacity:1;" d="M 75.011719 70.539062 L 75.011719 76.753906 L 85.242188 76.753906 L 85.242188 73.753906 L 81.832031 73.753906 C 78.71875 73.753906 78.421875 73.667969 78.421875 72.894531 C 78.421875 72.125 78.71875 72.039062 81.40625 72.039062 L 84.386719 72.039062 L 84.386719 69.039062 L 81.40625 69.039062 C 78.71875 69.039062 78.421875 68.953125 78.421875 68.179688 C 78.421875 67.40625 78.71875 67.320312 81.832031 67.320312 L 85.242188 67.320312 L 85.242188 64.320312 L 75.011719 64.320312 Z M 75.011719 70.539062 "/>
<path style=" stroke:none;fill-rule:nonzero;fill:rgb(0%,0%,0%);fill-opacity:1;" d="M 86.945312 70.625 L 86.945312 76.96875 L 96.320312 76.710938 L 96.320312 73.753906 L 90.355469 73.753906 L 90.355469 64.320312 L 86.945312 64.320312 Z M 86.945312 70.625 "/>
<path style=" stroke:none;fill-rule:nonzero;fill:rgb(0%,0%,0%);fill-opacity:1;" d="M 97.558594 64.40625 C 97.558594 64.492188 97.472656 67.277344 97.34375 70.625 L 97.132812 76.753906 L 107.828125 76.753906 L 107.828125 73.753906 L 104.417969 73.753906 C 101.308594 73.753906 101.007812 73.667969 101.007812 72.894531 C 101.007812 72.125 101.308594 72.039062 103.992188 72.039062 L 106.976562 72.039062 L 106.976562 69.039062 L 103.992188 69.039062 C 101.308594 69.039062 101.007812 68.953125 101.007812 68.179688 C 101.007812 67.40625 101.308594 67.320312 104.207031 67.320312 L 107.402344 67.320312 L 107.402344 64.320312 L 102.5 64.320312 C 99.816406 64.320312 97.601562 64.363281 97.558594 64.40625 Z M 97.558594 64.40625 "/>
<path style=" stroke:none;fill-rule:nonzero;fill:rgb(0%,0%,0%);fill-opacity:1;" d="M 51.355469 82.03125 C 49.78125 83.359375 49.480469 86.273438 50.675781 88.203125 C 51.613281 89.75 53.871094 90.433594 55.277344 89.664062 C 55.746094 89.449219 56.515625 89.363281 57.027344 89.492188 C 57.878906 89.707031 57.964844 89.578125 57.964844 87.519531 L 57.964844 85.332031 L 56.257812 85.332031 C 54.46875 85.332031 54.128906 85.71875 55.191406 86.617188 C 56.003906 87.304688 55.621094 87.90625 54.382812 87.90625 C 52.976562 87.90625 52.335938 86.960938 52.507812 85.03125 C 52.636719 83.53125 52.765625 83.402344 54.042969 83.273438 C 54.808594 83.1875 55.40625 83.316406 55.40625 83.574219 C 55.40625 83.832031 55.875 84.046875 56.472656 84.046875 C 58.089844 84.046875 57.792969 82.5 55.960938 81.515625 C 54.46875 80.742188 52.59375 80.957031 51.355469 82.03125 Z M 51.355469 82.03125 "/>
<path style=" stroke:none;fill-rule:nonzero;fill:rgb(0%,0%,0%);fill-opacity:1;" d="M 59.667969 85.332031 L 59.667969 89.621094 L 60.902344 89.621094 C 62.011719 89.621094 62.097656 89.492188 62.054688 88.203125 C 62.011719 86.960938 62.140625 86.832031 63.289062 86.832031 C 64.355469 86.832031 64.65625 87.046875 64.996094 88.203125 C 65.292969 89.277344 65.636719 89.621094 66.359375 89.621094 C 67.125 89.621094 67.339844 89.363281 67.339844 88.503906 C 67.339844 87.90625 67.125 87.046875 66.871094 86.574219 C 66.574219 85.933594 66.574219 85.546875 66.914062 85.117188 C 67.167969 84.773438 67.339844 84.003906 67.253906 83.316406 C 67.085938 81.730469 65.636719 81.042969 62.351562 81.042969 L 59.667969 81.042969 Z M 64.996094 84.046875 C 64.996094 84.472656 64.484375 84.730469 63.632812 84.816406 C 62.4375 84.945312 62.226562 84.816406 62.226562 84.046875 C 62.226562 83.273438 62.4375 83.144531 63.632812 83.273438 C 64.484375 83.359375 64.996094 83.617188 64.996094 84.046875 Z M 64.996094 84.046875 "/>
<path style=" stroke:none;fill-rule:nonzero;fill:rgb(0%,0%,0%);fill-opacity:1;" d="M 70.109375 81.988281 C 67.9375 83.917969 68.320312 88.160156 70.792969 89.40625 C 72.367188 90.21875 73.519531 90.21875 75.011719 89.320312 C 77.101562 88.074219 77.695312 85.546875 76.503906 83.1875 C 76.164062 82.5 75.480469 81.730469 75.054688 81.472656 C 73.605469 80.742188 71.304688 80.957031 70.109375 81.988281 Z M 74.628906 84.558594 C 75.351562 87.261719 72.539062 88.933594 71.21875 86.53125 C 70.707031 85.632812 70.664062 85.203125 71.089844 84.257812 C 71.515625 83.316406 71.859375 83.144531 72.964844 83.273438 C 74.03125 83.359375 74.371094 83.660156 74.628906 84.558594 Z M 74.628906 84.558594 "/>
<path style=" stroke:none;fill-rule:nonzero;fill:rgb(0%,0%,0%);fill-opacity:1;" d="M 78.71875 81.34375 C 78.25 81.816406 78.421875 86.273438 78.976562 87.90625 C 79.402344 89.105469 79.785156 89.492188 81.019531 89.792969 C 82.8125 90.21875 84.472656 89.917969 85.410156 88.933594 C 85.921875 88.417969 86.09375 87.390625 86.09375 84.644531 C 86.09375 81.085938 86.09375 81.042969 85.027344 81.042969 C 84.046875 81.042969 84.003906 81.171875 83.875 84.34375 L 83.75 87.691406 L 81.191406 87.691406 L 81.0625 84.34375 C 80.9375 81.214844 80.894531 81.042969 79.957031 81.042969 C 79.445312 81.042969 78.847656 81.171875 78.71875 81.34375 Z M 78.71875 81.34375 "/>
<path style=" stroke:none;fill-rule:nonzero;fill:rgb(0%,0%,0%);fill-opacity:1;" d="M 88.222656 85.332031 L 88.222656 89.621094 L 89.289062 89.621094 C 90.183594 89.621094 90.355469 89.40625 90.355469 88.332031 C 90.355469 87.132812 90.441406 87.046875 92.015625 87.046875 C 93.847656 87.046875 94.871094 86.273438 95.296875 84.6875 C 95.851562 82.414062 93.976562 81.042969 90.3125 81.042969 L 88.222656 81.042969 Z M 92.871094 83.574219 C 93.765625 84.132812 92.699219 85.332031 91.378906 85.332031 C 90.566406 85.332031 90.355469 85.117188 90.355469 84.257812 C 90.355469 83.445312 90.566406 83.1875 91.335938 83.1875 C 91.847656 83.1875 92.527344 83.359375 92.871094 83.574219 Z M 92.871094 83.574219 "/>
</g>
</svg>
